<?xml version="1.0" encoding="utf-8"?>
<!-- Generator: Adobe Illustrator 27.1.1, SVG Export Plug-In . SVG Version: 6.00 Build 0)  -->
<svg version="1.1" id="Note" xmlns="http://www.w3.org/2000/svg" xmlns:xlink="http://www.w3.org/1999/xlink" x="0px" y="0px"
	 viewBox="0 0 48 48" style="enable-background:new 0 0 48 48;" xml:space="preserve">
<style type="text/css">
	.st0{fill:#FFFFFF;}
	.st1{fill:#FFFFFF;fill-opacity:0;}
</style>
<path class="st0" d="M29.92041,7.5H7.5v33h33v-33H29.92041z M38.5,18.61621v10.76807l1,0.26807v9.84766h-9.84814l-0.26807-1
	H18.61572l-0.26807,1H8.49999v-9.84863l1-0.26758V18.61573l-1-0.26807V8.5h9.84814l0.26807,1h10.76807l0.26807-1H39.5v9.84863
	C39.5,18.34863,38.5,18.61621,38.5,18.61621z M12.5,12.5h2v2h-2V12.5z M15.5,12.5h2v2h-2V12.5z M18.5,12.5h2v2h-2V12.5z M21.5,12.5
	h2v2h-2V12.5z M24.5,12.5h2v2h-2V12.5z M27.5,12.5h2v2h-2V12.5z M30.5,12.5h2v2h-2V12.5z M33.5,12.5h2v2h-2V12.5z M12.5,15.5h2v2h-2
	C12.5,17.5,12.5,15.5,12.5,15.5z M15.5,15.5h2v2h-2C15.5,17.5,15.5,15.5,15.5,15.5z M18.5,15.5h2v2h-2
	C18.5,17.5,18.5,15.5,18.5,15.5z M21.5,15.5h2v2h-2C21.5,17.5,21.5,15.5,21.5,15.5z M24.5,15.5h2v2h-2
	C24.5,17.5,24.5,15.5,24.5,15.5z M27.5,15.5h2v2h-2C27.5,17.5,27.5,15.5,27.5,15.5z M30.5,15.5h2v2h-2
	C30.5,17.5,30.5,15.5,30.5,15.5z M33.5,15.5h2v2h-2C33.5,17.5,33.5,15.5,33.5,15.5z M12.5,18.5h2v2h-2V18.5z M15.5,18.5h2v2h-2V18.5
	z M18.5,18.5h2v2h-2V18.5z M21.5,18.5h2v2h-2V18.5z M24.5,18.5h2v2h-2V18.5z M27.5,18.5h2v2h-2V18.5z M30.5,18.5h2v2h-2V18.5z
	 M33.5,18.5h2v2h-2V18.5z M12.5,21.5h2v2h-2V21.5z M15.5,21.5h2v2h-2V21.5z M18.5,21.5h2v2h-2V21.5z M21.5,21.5h2v2h-2V21.5z
	 M24.5,21.5h2v2h-2V21.5z M27.5,21.5h2v2h-2V21.5z M30.5,21.5h2v2h-2V21.5z M33.5,21.5h2v2h-2V21.5z M12.5,24.5h2v2h-2V24.5z
	 M15.5,24.5h2v2h-2V24.5z M18.5,24.5h2v2h-2V24.5z M21.5,24.5h2v2h-2V24.5z M24.5,24.5h2v2h-2V24.5z M27.5,24.5h2v2h-2V24.5z
	 M30.5,24.5h2v2h-2V24.5z M33.5,24.5h2v2h-2V24.5z M12.5,27.5h2v2h-2V27.5z M15.5,27.5h2v2h-2V27.5z M18.5,27.5h2v2h-2V27.5z
	 M21.5,27.5h2v2h-2V27.5z M24.5,27.5h2v2h-2V27.5z M27.5,27.5h2v2h-2V27.5z M30.5,27.5h2v2h-2V27.5z M33.5,27.5h2v2h-2V27.5z
	 M12.5,30.5h2v2h-2V30.5z M15.5,30.5h2v2h-2V30.5z M18.5,30.5h2v2h-2V30.5z M21.5,30.5h2v2h-2V30.5z M24.5,30.5h2v2h-2V30.5z
	 M27.5,30.5h2v2h-2V30.5z M30.5,30.5h2v2h-2V30.5z M33.5,30.5h2v2h-2V30.5z M12.5,33.5h2v2h-2V33.5z M15.5,33.5h2v2h-2V33.5z
	 M18.5,33.5h2v2h-2V33.5z M21.5,33.5h2v2h-2V33.5z M24.5,33.5h2v2h-2V33.5z M27.5,33.5h2v2h-2V33.5z M30.5,33.5h2v2h-2V33.5z
	 M33.5,33.5h2v2h-2V33.5z"/>
<rect class="st1" width="48" height="48"/>
</svg>
