<?xml version="1.0" encoding="utf-8"?>
<!-- Generator: Adobe Illustrator 27.1.1, SVG Export Plug-In . SVG Version: 6.00 Build 0)  -->
<svg version="1.1" id="Art_3.0" xmlns="http://www.w3.org/2000/svg" xmlns:xlink="http://www.w3.org/1999/xlink" x="0px" y="0px"
	 viewBox="0 0 48 48" style="enable-background:new 0 0 48 48;" xml:space="preserve">
<style type="text/css">
	.st0{fill:#FFFFFF;}
	.st1{fill:#FFFFFF;fill-opacity:0;}
</style>
<path class="st0" d="M39.5,17.5h-0.36719l-7-4h-4l-7-4h-4l-7-4H5.5v37h4.63281l7-4h4l7-4h4l7-4H43.5v-13H39.5z M38.5,22.5v5.10938
	L36.9209,24L38.5,20.39062C38.5,20.39062,38.5,22.5,38.5,22.5z M10.5,33.5V10.62549L13.42554,24L10.5,37.37451V33.5z M27.5,30.5
	L25.60425,24L27.5,17.50049V30.5z M28.5,21.5v-3h3v3H28.5z M31.5,22.5v3h-3v-3H31.5z M28.5,26.5h3v3h-3V26.5z M32.5,29.5V16.39062
	L35.8291,24L32.5,31.60889V29.5z M33.06372,15.18359l5.29797,3.02734L36.375,22.75195L33.06372,15.18359z M31.5,17.5h-3v-3h3V17.5z
	 M25.08325,22.21484l-3.25708-11.16699l5.5835,3.19092L25.08325,22.21484z M17.5,25.5v-3h3v3H17.5z M20.5,26.5v3h-3v-3H20.5z
	 M17.5,21.5v-3h3v3H17.5z M17.5,17.5v-3h3v3H17.5z M16.5,17.5v15.87451L14.44946,24L16.5,14.62549
	C16.5,14.62549,16.5,17.5,16.5,17.5z M17.5,30.5h3v3h-3V30.5z M21.5,33.5V13.50098l3.0625,10.49951L21.5,34.5l0,0V33.5z M20.5,13.5
	h-3v-3h3V13.5z M13.9375,21.65967L10.72925,6.99268l5.70361,3.25928L13.9375,21.65967z M13.9375,26.34033l2.49536,11.40771
	l-5.70361,3.25928L13.9375,26.34033z M17.5,34.5h3v3h-3V34.5z M25.08337,25.78613l2.32629,7.9751l-5.58301,3.19043
	C21.82665,36.95166,25.08336,25.78613,25.08337,25.78613z M28.5,30.5h3v3h-3V30.5z M36.375,25.24756l1.98682,4.5415
	l-5.29834,3.02734l3.31152-7.56885V25.24756z M6.5,6.5h3v3h-3V6.5z M6.5,10.5h3v3h-3V10.5z M6.5,14.5h3v3h-3V14.5z M6.5,18.5h3v3h-3
	V18.5z M6.5,22.5h3v3h-3V22.5z M6.5,26.5h3v3h-3V26.5z M6.5,30.5h3v3h-3V30.5z M6.5,34.5h3v3h-3V34.5z M6.5,38.5h3v3h-3V38.5z
	 M42.5,29.5h-3v-3h3V29.5z M42.5,25.5h-3v-3h3V25.5z M39.5,21.5v-3h3v3H39.5z"/>
<rect class="st1" width="48" height="48"/>
</svg>
