<?xml version="1.0" encoding="utf-8"?>
<!-- Generator: Adobe Illustrator 28.1.0, SVG Export Plug-In . SVG Version: 6.00 Build 0)  -->
<svg version="1.1" id="_4090" xmlns="http://www.w3.org/2000/svg" xmlns:xlink="http://www.w3.org/1999/xlink" x="0px" y="0px"
	 viewBox="0 0 1290 528.1" style="enable-background:new 0 0 1290 528.1;" xml:space="preserve">
<style type="text/css">
	.st0{fill:none;stroke:#95989A;}
	.st1{fill:#FFFFFF;}
	.st2{fill:#999999;}
	.st3{fill:#76B900;}
</style>
<line id="line-7" class="st0" x1="1279" y1="427" x2="47" y2="427"/>
<g id="lines">
	<line id="line-7-2" class="st0" x1="1279" y1="347.2" x2="47" y2="347.2"/>
	<line id="line-7-3" class="st0" x1="1279" y1="267.4" x2="47" y2="267.4"/>
	<line id="line-7-4" class="st0" x1="1279" y1="187.6" x2="47" y2="187.6"/>
	<line id="line-7-5" class="st0" x1="1279" y1="107.8" x2="47" y2="107.8"/>
</g>
<path class="st1" d="M33.7,427.8c-1.3,0-2.2-0.4-2.9-1.2c-0.7-0.8-1-1.9-1-3.3v-1c0-1.4,0.3-2.6,1-3.3c0.7-0.8,1.6-1.1,2.9-1.1h0.1
	c1.3,0,2.2,0.4,2.9,1.1c0.7,0.8,1,1.9,1,3.3v1c0,1.4-0.3,2.5-1,3.3c-0.7,0.8-1.6,1.2-2.9,1.2H33.7z M33.7,426.1h0.1
	c1.2,0,1.8-0.9,1.8-2.7v-1c0-1.8-0.6-2.7-1.8-2.7h-0.1c-1.2,0-1.8,0.9-1.8,2.7v1C31.9,425.1,32.5,426.1,33.7,426.1z"/>
<path class="st1" d="M14.2,350.8c-1.3,0-2.2-0.4-2.9-1.2c-0.7-0.8-1-1.9-1-3.3v-1c0-1.4,0.3-2.6,1-3.3c0.7-0.8,1.6-1.1,2.9-1.1h0.1
	c1.3,0,2.2,0.4,2.9,1.1c0.7,0.8,1,1.9,1,3.3v1c0,1.4-0.3,2.5-1,3.3c-0.7,0.8-1.6,1.2-2.9,1.2H14.2z M14.2,349.1h0.1
	c1.2,0,1.8-0.9,1.8-2.7v-1c0-1.8-0.6-2.7-1.8-2.7h-0.1c-1.2,0-1.8,0.9-1.8,2.7v1C12.3,348.1,12.9,349.1,14.2,349.1z"/>
<path class="st1" d="M19.2,350.6v-2.1h2.1v2.1H19.2z"/>
<path class="st1" d="M26.1,350.8c-1.8,0-2.9-0.6-3.4-1.9l1.6-0.7c0.2,0.6,0.8,0.9,1.7,0.9h0.1c0.5,0,0.9-0.1,1.2-0.4
	c0.3-0.3,0.5-0.6,0.5-1v-0.2c0-0.4-0.2-0.8-0.5-1.1c-0.3-0.3-0.7-0.4-1.2-0.4h-0.1c-0.6,0-1.2,0.2-1.7,0.6l-1.2-0.5l0.2-5.2h6v1.8
	h-4.3l-0.1,2.1c0.2-0.1,0.5-0.3,0.8-0.3c0.3-0.1,0.6-0.1,1-0.1h0.2c0.6,0,1.1,0.1,1.6,0.4c0.5,0.3,0.8,0.6,1.1,1.1
	c0.3,0.5,0.4,1,0.4,1.6v0.2c0,0.6-0.1,1.1-0.4,1.6c-0.3,0.5-0.7,0.8-1.2,1.1c-0.5,0.3-1.1,0.4-1.8,0.4H26.1L26.1,350.8z"/>
<path class="st1" d="M35.5,350.6l-1.4-2.2l-1.4,2.2h-2.2L33,347l-2.4-3.6H33l1.3,2.1l1.3-2.1h2.2l-2.4,3.6l2.5,3.7H35.5L35.5,350.6z
	"/>
<path class="st1" d="M23.7,270.6v-7.9H22l0.2-1.7h3.4v9.6H23.7z"/>
<path class="st1" d="M35.4,270.6l-2.2-3.4l-2.2,3.4h-2.4l3.4-5l-3.3-4.8h2.4l2.1,3.2l2.1-3.2h2.4l-3.3,4.8l3.4,5H35.4z"/>
<path class="st1" d="M11.7,191.6v-7.9H10l0.2-1.7h3.4v9.6H11.7z"/>
<path class="st1" d="M17.2,191.6v-2.1h2.1v2.1H17.2z"/>
<path class="st1" d="M24.2,191.8c-1.8,0-2.9-0.6-3.4-1.9l1.6-0.7c0.2,0.6,0.8,0.9,1.7,0.9h0.1c0.5,0,0.9-0.1,1.2-0.4
	c0.3-0.3,0.5-0.6,0.5-1v-0.2c0-0.4-0.2-0.8-0.5-1.1c-0.3-0.3-0.7-0.4-1.2-0.4h-0.1c-0.6,0-1.2,0.2-1.7,0.6l-1.2-0.5l0.2-5.2h6v1.8
	h-4.3l-0.1,2.1c0.2-0.1,0.5-0.3,0.8-0.3c0.3-0.1,0.6-0.1,1-0.1h0.2c0.6,0,1.1,0.1,1.6,0.4c0.5,0.3,0.8,0.6,1.1,1.1
	c0.3,0.5,0.4,1,0.4,1.6v0.2c0,0.6-0.1,1.1-0.4,1.6c-0.3,0.5-0.7,0.8-1.2,1.1c-0.5,0.3-1.1,0.4-1.8,0.4H24.2L24.2,191.8z"/>
<path class="st1" d="M35.4,191.6l-2.2-3.4l-2.2,3.4h-2.4l3.4-5l-3.3-4.8h2.4l2.1,3.2l2.1-3.2h2.4l-3.3,4.8l3.4,5H35.4z"/>
<path class="st1" d="M20.9,110.6v-1.5c0-0.7,0.2-1.3,0.5-1.8c0.3-0.5,0.8-1,1.4-1.3l1.6-0.9c0.7-0.4,1.1-0.9,1.1-1.4v-0.1
	c0-0.3-0.1-0.5-0.4-0.7s-0.6-0.3-0.9-0.3h-0.1c-0.4,0-0.8,0.1-1,0.3c-0.3,0.2-0.4,0.4-0.6,0.8l-1.7-0.7c0.5-1.3,1.6-2,3.3-2h0.2
	c1,0,1.7,0.2,2.3,0.7c0.6,0.5,0.9,1.1,0.9,2v0.2c0,0.6-0.2,1.2-0.5,1.6c-0.3,0.4-0.9,0.9-1.6,1.3l-1.4,0.8c-0.6,0.3-0.9,0.8-0.9,1.4
	h4.5v1.8L20.9,110.6L20.9,110.6z"/>
<path class="st1" d="M35.4,110.6l-2.2-3.4l-2.2,3.4h-2.4l3.4-5l-3.3-4.8h2.4l2.1,3.2l2.1-3.2h2.4l-3.3,4.8l3.4,5H35.4z"/>
<rect id="rectangle-10-5" x="666.7" y="267.6" class="st2" width="50" height="159.2"/>
<polygon id="rectangle-10-6" class="st3" points="606.4,98.7 632.6,87.6 656.4,98.7 656.4,427.8 606.4,427.8 "/>
<polygon id="rectangle-10-6-2" class="st3" points="606.4,38.6 656.4,38.6 656.4,87.6 631.9,76 606.4,87.6 "/>
<path class="st3" d="M623.5,514.5v-11.2h4.5c1.1,0,2.1,0.2,2.9,0.7s1.4,1.1,1.8,1.8c0.4,0.8,0.6,1.7,0.6,2.8v0.6
	c0,1.6-0.4,2.9-1.3,3.9s-2.2,1.4-3.9,1.4H623.5z M625.9,512.5h2.1c0.9,0,1.7-0.3,2.2-0.8c0.5-0.5,0.8-1.3,0.8-2.4v-0.7
	c0-1.1-0.3-1.9-0.8-2.4c-0.5-0.5-1.2-0.8-2.2-0.8h-2.1V512.5z"/>
<path class="st3" d="M635.4,514.5v-11.2h2.3v9.2h4.9v2H635.4z"/>
<path class="st3" d="M648.2,514.7c-2.3,0-3.8-0.8-4.5-2.5l2-1c0.4,1,1.2,1.5,2.5,1.5h0.2c1.4,0,2-0.4,2-1.3v-0.2
	c0-0.3-0.1-0.6-0.4-0.9c-0.2-0.2-0.6-0.4-1-0.4l-1.7-0.2c-1.1-0.1-1.9-0.5-2.4-1c-0.6-0.5-0.8-1.3-0.8-2.2v-0.2
	c0-0.7,0.2-1.2,0.5-1.7c0.3-0.5,0.8-0.9,1.4-1.1c0.6-0.3,1.4-0.4,2.2-0.4h0.2c1,0,1.9,0.2,2.6,0.6s1.2,1,1.5,1.8l-2,0.9
	c-0.3-0.8-1-1.3-2.1-1.3h-0.2c-0.6,0-1,0.1-1.4,0.3s-0.5,0.5-0.5,0.9v0.2c0,0.7,0.4,1,1.3,1.2l1.7,0.2c1.1,0.1,1.9,0.5,2.5,1.1
	c0.5,0.6,0.8,1.3,0.8,2.3v0.2c0,1.1-0.4,1.9-1.1,2.5c-0.7,0.6-1.8,0.9-3.2,0.9H648.2z"/>
<path class="st3" d="M658.3,514.7c-2.3,0-3.8-0.8-4.5-2.5l2-1c0.4,1,1.2,1.5,2.5,1.5h0.2c1.4,0,2-0.4,2-1.3v-0.2
	c0-0.3-0.1-0.6-0.4-0.9c-0.2-0.2-0.6-0.4-1-0.4l-1.7-0.2c-1.1-0.1-1.9-0.5-2.4-1c-0.6-0.5-0.8-1.3-0.8-2.2v-0.2
	c0-0.7,0.2-1.2,0.5-1.7c0.3-0.5,0.8-0.9,1.4-1.1c0.6-0.3,1.4-0.4,2.2-0.4h0.2c1,0,1.9,0.2,2.6,0.6s1.2,1,1.5,1.8l-2,0.9
	c-0.3-0.8-1-1.3-2.1-1.3h-0.2c-0.6,0-1,0.1-1.4,0.3s-0.5,0.5-0.5,0.9v0.2c0,0.7,0.4,1,1.3,1.2l1.7,0.2c1.1,0.1,1.9,0.5,2.5,1.1
	c0.5,0.6,0.8,1.3,0.8,2.3v0.2c0,1.1-0.4,1.9-1.1,2.5c-0.7,0.6-1.8,0.9-3.2,0.9H658.3z"/>
<path class="st3" d="M668.5,510v-1.9h2.6v-2.7h2.1v2.7h2.6v1.9h-2.6v2.7h-2.1V510H668.5z"/>
<path class="st3" d="M682.3,514.5v-11.2h4.2c1.3,0,2.3,0.3,3.1,0.9c0.8,0.6,1.1,1.5,1.1,2.5v0.3c0,0.8-0.2,1.4-0.6,1.9
	c-0.4,0.5-0.9,0.9-1.5,1.2l2.4,4.4h-2.5l-2.2-4h-1.7v4H682.3z M684.6,508.5h1.8c0.6,0,1-0.1,1.4-0.3c0.4-0.2,0.6-0.6,0.6-1.1v-0.4
	c0-0.5-0.2-0.8-0.6-1c-0.4-0.2-0.8-0.3-1.4-0.3h-1.8V508.5z"/>
<path class="st3" d="M695,514.5v-9.2h-3.4v-2h9.1v2h-3.4v9.2H695z"/>
<path class="st1" d="M605,453.7c-1.7,0-2.9-0.5-3.8-1.5c-0.9-1-1.3-2.3-1.3-4.1v-0.6c0-1.1,0.2-2.1,0.6-2.9c0.4-0.8,1-1.5,1.7-1.9
	s1.7-0.7,2.8-0.7h0.1c1.1,0,2.1,0.3,2.8,0.8s1.3,1.2,1.6,2.1l-2.2,0.8c-0.1-0.6-0.4-1-0.8-1.2c-0.4-0.3-0.9-0.4-1.4-0.4H605
	c-0.9,0-1.6,0.3-2,0.8c-0.5,0.6-0.7,1.4-0.7,2.6v0.7c0,1.2,0.2,2.1,0.7,2.6c0.5,0.5,1.2,0.8,2.1,0.8h0.1c0.6,0,1.1-0.1,1.5-0.4
	c0.4-0.2,0.7-0.7,0.9-1.2l2.1,0.8c-0.3,0.9-0.9,1.6-1.6,2.1c-0.8,0.5-1.7,0.7-2.9,0.7H605z"/>
<path class="st1" d="M610.9,456.7v-1.9h0.6c0.5,0,0.8-0.1,1-0.2c0.2-0.1,0.4-0.4,0.6-0.9l0.1-0.2l-3.2-8.2h2.4l1.9,5.8l1.7-5.8h2.3
	l-2.9,8.4c-0.2,0.7-0.5,1.2-0.7,1.6c-0.2,0.4-0.5,0.7-0.8,0.9c-0.3,0.2-0.6,0.4-1,0.4c-0.4,0.1-0.8,0.1-1.4,0.1H610.9z"/>
<path class="st1" d="M624.1,453.7c-1.2,0-2-0.4-2.6-1.2v1h-2v-11.7h2.2v4.2c0.6-0.7,1.3-1,2.3-1h0.1c0.7,0,1.3,0.2,1.8,0.5
	c0.5,0.3,0.9,0.8,1.2,1.4s0.4,1.4,0.4,2.2v0.5c0,0.9-0.1,1.6-0.4,2.2s-0.7,1.1-1.2,1.4c-0.5,0.3-1.1,0.5-1.8,0.5H624.1z
	 M623.4,451.8h0.1c0.5,0,0.9-0.2,1.3-0.5s0.5-0.9,0.5-1.6v-0.5c0-0.8-0.2-1.3-0.5-1.7s-0.8-0.5-1.3-0.5h-0.1c-0.3,0-0.5,0.1-0.8,0.2
	c-0.3,0.1-0.5,0.4-0.7,0.7c-0.2,0.3-0.3,0.7-0.3,1.3v0.5c0,0.5,0.1,0.9,0.3,1.3c0.2,0.3,0.4,0.6,0.7,0.7S623.2,451.8,623.4,451.8z"
	/>
<path class="st1" d="M632.8,453.7c-1.3,0-2.2-0.4-2.9-1.1c-0.7-0.7-1-1.7-1-3v-0.5c0-1.3,0.4-2.3,1.1-3c0.7-0.7,1.7-1.1,2.9-1.1h0.1
	c1.2,0,2.1,0.4,2.7,1.1c0.7,0.7,1,1.7,1,2.9v1H631c0.1,1.3,0.7,1.9,1.8,1.9h0.2c0.8,0,1.4-0.3,1.8-0.8l1.6,1.1
	c-0.3,0.5-0.7,0.9-1.3,1.2c-0.6,0.3-1.3,0.4-2,0.4H632.8z M631,448.5h3.4v0c0-1.1-0.5-1.7-1.6-1.7h-0.1
	C631.8,446.8,631.2,447.4,631,448.5z"/>
<path class="st1" d="M638.2,453.5v-8.3h2v1.4c0.2-0.5,0.5-0.8,0.8-1.1s0.8-0.4,1.4-0.4h0.9v2.1h-0.8c-0.3,0-0.6,0.1-0.9,0.2
	c-0.3,0.1-0.6,0.3-0.8,0.7c-0.2,0.3-0.3,0.8-0.3,1.3v4.1H638.2z"/>
<path class="st1" d="M644.5,456.7v-11.5h2v1c0.6-0.8,1.4-1.2,2.6-1.2h0.1c0.7,0,1.3,0.2,1.8,0.5s0.9,0.8,1.2,1.4s0.4,1.4,0.4,2.3
	v0.5c0,0.9-0.1,1.6-0.4,2.2s-0.7,1.1-1.2,1.4s-1.1,0.5-1.8,0.5H649c-1,0-1.8-0.3-2.3-1v4H644.5z M648.4,451.8h0.1
	c0.5,0,0.9-0.2,1.3-0.5c0.3-0.3,0.5-0.9,0.5-1.6v-0.5c0-0.8-0.2-1.3-0.5-1.7c-0.3-0.3-0.8-0.5-1.3-0.5h-0.1c-0.3,0-0.6,0.1-0.8,0.2
	c-0.3,0.1-0.5,0.4-0.7,0.7c-0.2,0.3-0.3,0.7-0.3,1.3v0.5c0,0.5,0.1,0.9,0.3,1.3s0.4,0.6,0.7,0.7
	C647.9,451.7,648.2,451.8,648.4,451.8z"/>
<path class="st1" d="M657.1,453.7c-0.9,0-1.6-0.3-2.2-0.9c-0.5-0.6-0.8-1.4-0.8-2.5v-5.1h2.2v4.8c0,0.6,0.1,1,0.3,1.3
	c0.2,0.3,0.5,0.5,1,0.5h0.1c0.3,0,0.5-0.1,0.7-0.2c0.2-0.1,0.4-0.4,0.6-0.6c0.2-0.3,0.2-0.7,0.2-1.1v-4.6h2.2v8.3h-2v-1
	c-0.3,0.4-0.6,0.7-1,0.9c-0.4,0.2-0.9,0.3-1.4,0.3H657.1z"/>
<path class="st1" d="M663.7,453.5v-8.3h2v1c0.3-0.4,0.6-0.7,1.1-0.9s0.9-0.3,1.4-0.3h0.2c0.9,0,1.7,0.3,2.2,0.9
	c0.5,0.6,0.8,1.4,0.8,2.5v5.1h-2.2v-4.8c0-0.6-0.1-1-0.3-1.3c-0.2-0.3-0.6-0.5-1.1-0.5h-0.1c-0.3,0-0.5,0.1-0.8,0.2
	c-0.2,0.1-0.5,0.4-0.6,0.6c-0.2,0.3-0.2,0.7-0.2,1.1v4.6H663.7z"/>
<path class="st1" d="M673.4,453.5v-11.7h2.2v6.4l3-2.9h2.8l-3.3,3.1l3.5,5.1h-2.7l-2.4-3.7l-0.9,0.8v2.9H673.4z"/>
<path class="st1" d="M686.6,453.5v-1.7c0-0.8,0.2-1.5,0.6-2.1c0.4-0.6,0.9-1.1,1.6-1.5l1.9-1c0.9-0.4,1.3-1,1.3-1.6v-0.2
	c0-0.3-0.1-0.6-0.4-0.8s-0.6-0.3-1.1-0.3h-0.1c-0.5,0-0.9,0.1-1.2,0.3c-0.3,0.2-0.5,0.5-0.6,0.9l-1.9-0.8c0.5-1.5,1.8-2.3,3.8-2.3
	h0.2c1.1,0,2,0.3,2.6,0.8s1,1.3,1,2.2v0.3c0,0.7-0.2,1.3-0.6,1.8c-0.4,0.5-1,1-1.9,1.5l-1.6,0.9c-0.6,0.4-1,0.9-1,1.6h5.1v2H686.6z"
	/>
<path class="st1" d="M700,453.7c-1.4,0-2.5-0.4-3.3-1.3s-1.1-2.1-1.1-3.8v-1.2c0-1.7,0.4-2.9,1.1-3.8s1.8-1.3,3.3-1.3h0.1
	c1.4,0,2.5,0.4,3.3,1.3c0.7,0.9,1.1,2.1,1.1,3.8v1.2c0,1.6-0.4,2.9-1.1,3.8c-0.7,0.9-1.8,1.3-3.3,1.3H700z M700,451.7h0.1
	c1.4,0,2.1-1,2.1-3.1v-1.1c0-2.1-0.7-3.1-2.1-3.1H700c-1.4,0-2.1,1-2.1,3.1v1.1C697.9,450.6,698.6,451.7,700,451.7z"/>
<path class="st1" d="M707.7,453.5v-1.2c0-0.6,0-1.1,0.1-1.5s0.2-0.9,0.4-1.4c0.2-0.5,0.4-1,0.7-1.5l1.9-3.3h-5v-2h7.8v1.7l-2.6,4.3
	c-0.4,0.6-0.7,1.3-0.8,1.8c-0.2,0.6-0.3,1.2-0.3,1.9v1.2H707.7z"/>
<path class="st1" d="M717.3,453.5v-1.2c0-0.6,0-1.1,0.1-1.5s0.2-0.9,0.4-1.4c0.2-0.5,0.4-1,0.7-1.5l1.9-3.3h-5v-2h7.8v1.7l-2.6,4.3
	c-0.4,0.6-0.7,1.3-0.8,1.8c-0.2,0.6-0.3,1.2-0.3,1.9v1.2H717.3z"/>
<path class="st1" d="M613.4,472.7v-11.2h4.2c1.3,0,2.3,0.3,3.1,0.9c0.8,0.6,1.1,1.5,1.1,2.5v0.3c0,0.8-0.2,1.4-0.6,1.9
	c-0.4,0.5-0.9,0.9-1.5,1.2l2.4,4.4h-2.5l-2.2-4h-1.7v4H613.4z M615.7,466.7h1.8c0.6,0,1-0.1,1.4-0.3c0.4-0.2,0.6-0.6,0.6-1.1v-0.4
	c0-0.5-0.2-0.8-0.6-1c-0.4-0.2-0.8-0.3-1.4-0.3h-1.8V466.7z"/>
<path class="st1" d="M626.1,472.7v-9.2h-3.4v-2h9.1v2h-3.4v9.2H626.1z"/>
<path class="st1" d="M632.4,466.7v-2.4h2.4v2.4H632.4z M632.4,472.7v-2.4h2.4v2.4H632.4z"/>
<path class="st1" d="M645.7,472.9c-1.1,0-2-0.2-2.8-0.7s-1.4-1.1-1.8-1.9c-0.4-0.8-0.6-1.8-0.6-2.9v-0.6c0-1.1,0.2-2.1,0.6-2.9
	c0.4-0.8,1-1.5,1.8-1.9c0.8-0.4,1.7-0.7,2.8-0.7h0.2c1.1,0,2,0.2,2.8,0.7c0.8,0.4,1.4,1.1,1.8,1.9c0.4,0.8,0.6,1.8,0.6,2.9v0.6
	c0,1.1-0.2,2.1-0.6,2.9c-0.4,0.8-1,1.5-1.8,1.9s-1.7,0.7-2.8,0.7H645.7z M645.7,470.8h0.1c0.9,0,1.6-0.3,2.1-0.8s0.8-1.4,0.8-2.6
	v-0.7c0-1.1-0.3-2-0.8-2.6c-0.5-0.6-1.2-0.8-2.1-0.8h-0.1c-0.9,0-1.6,0.3-2.1,0.8c-0.5,0.6-0.8,1.4-0.8,2.6v0.7c0,1.1,0.3,2,0.8,2.6
	S644.8,470.8,645.7,470.8z"/>
<path class="st1" d="M655,472.7l-3.1-8.3h2.4l1.8,5.5l1.8-5.5h2.2l-3.1,8.3H655z"/>
<path class="st1" d="M664.3,472.9c-1.3,0-2.2-0.4-2.9-1.1s-1-1.7-1-3v-0.5c0-1.3,0.4-2.3,1.1-3c0.7-0.7,1.7-1.1,2.9-1.1h0.1
	c1.2,0,2.1,0.4,2.7,1.1s1,1.7,1,2.9v1h-5.6c0.1,1.3,0.7,1.9,1.8,1.9h0.2c0.8,0,1.4-0.3,1.8-0.8l1.6,1.1c-0.3,0.5-0.7,0.9-1.3,1.2
	s-1.3,0.4-2,0.4H664.3z M662.6,467.7h3.4v0c0-1.1-0.5-1.7-1.6-1.7h-0.1C663.3,466,662.7,466.6,662.6,467.7z"/>
<path class="st1" d="M669.8,472.7v-8.3h2v1.4c0.2-0.5,0.5-0.9,0.8-1.1s0.8-0.4,1.4-0.4h0.9v2.1H674c-0.3,0-0.6,0.1-0.9,0.2
	c-0.3,0.1-0.6,0.3-0.8,0.7s-0.3,0.7-0.3,1.3v4.1H669.8z"/>
<path class="st1" d="M679,472.9c-0.7,0-1.3-0.2-1.8-0.5c-0.5-0.3-0.9-0.8-1.2-1.4c-0.3-0.6-0.4-1.4-0.4-2.3v-0.5
	c0-0.9,0.1-1.6,0.4-2.2s0.7-1.1,1.2-1.4c0.5-0.3,1.1-0.5,1.8-0.5h0.1c1,0,1.8,0.3,2.3,1V461h2.2v11.7h-2v-1
	c-0.6,0.8-1.4,1.2-2.6,1.2H679z M679.6,471h0.1c0.3,0,0.6-0.1,0.8-0.2c0.3-0.1,0.5-0.4,0.7-0.7c0.2-0.3,0.3-0.7,0.3-1.3v-0.5
	c0-0.5-0.1-0.9-0.3-1.3c-0.2-0.3-0.4-0.6-0.7-0.7c-0.3-0.1-0.5-0.2-0.8-0.2h-0.1c-0.5,0-0.9,0.2-1.3,0.5c-0.3,0.3-0.5,0.9-0.5,1.6
	v0.5c0,0.8,0.2,1.3,0.5,1.7C678.7,470.8,679.1,471,679.6,471z"/>
<path class="st1" d="M685.8,472.7v-8.3h2v1.4c0.2-0.5,0.5-0.9,0.8-1.1s0.8-0.4,1.4-0.4h0.9v2.1H690c-0.3,0-0.6,0.1-0.9,0.2
	c-0.3,0.1-0.6,0.3-0.8,0.7s-0.3,0.7-0.3,1.3v4.1H685.8z"/>
<path class="st1" d="M692.3,463.2V461h2.3v2.2H692.3z M692.3,472.7v-8.3h2.2v8.3H692.3z"/>
<path class="st1" d="M698.9,472.7l-3.1-8.3h2.4l1.8,5.5l1.8-5.5h2.2l-3.1,8.3H698.9z"/>
<path class="st1" d="M708.2,472.9c-1.3,0-2.2-0.4-2.9-1.1s-1-1.7-1-3v-0.5c0-1.3,0.4-2.3,1.1-3c0.7-0.7,1.7-1.1,2.9-1.1h0.1
	c1.2,0,2.1,0.4,2.7,1.1c0.7,0.7,1,1.7,1,2.9v1h-5.6c0.1,1.3,0.7,1.9,1.8,1.9h0.2c0.8,0,1.4-0.3,1.8-0.8l1.6,1.1
	c-0.3,0.5-0.7,0.9-1.3,1.2c-0.6,0.3-1.3,0.4-2,0.4H708.2z M706.5,467.7h3.4v0c0-1.1-0.5-1.7-1.6-1.7h-0.1
	C707.2,466,706.6,466.6,706.5,467.7z"/>
<path class="st3" d="M617.5,28c-2.3,0-3.8-0.8-4.4-2.4l2.1-0.9c0.3,0.8,1,1.1,2.1,1.1h0.1c0.6,0,1.1-0.2,1.5-0.5
	c0.4-0.3,0.6-0.7,0.6-1.2v-0.2c0-0.6-0.2-1-0.6-1.4c-0.4-0.4-0.9-0.5-1.6-0.5h-0.2c-0.7,0-1.5,0.3-2.2,0.8l-1.5-0.7l0.3-6.7h7.7v2.3
	h-5.6l-0.1,2.8c0.3-0.2,0.6-0.3,1-0.4c0.4-0.1,0.8-0.2,1.2-0.2h0.2c0.8,0,1.4,0.2,2,0.5c0.6,0.3,1.1,0.8,1.4,1.4
	c0.3,0.6,0.5,1.3,0.5,2v0.3c0,0.8-0.2,1.5-0.5,2.1c-0.4,0.6-0.9,1-1.5,1.4c-0.7,0.3-1.4,0.5-2.3,0.5L617.5,28L617.5,28z"/>
<path class="st3" d="M624,27.8V25h2.6v2.7H624z"/>
<path class="st3" d="M628.7,27.8v-1.9c0-0.9,0.2-1.6,0.6-2.3c0.4-0.7,1-1.2,1.8-1.7l2.1-1.1c1-0.5,1.4-1.1,1.4-1.9v-0.2
	c0-0.4-0.2-0.7-0.5-1c-0.3-0.3-0.7-0.4-1.2-0.4h-0.1c-0.6,0-1,0.1-1.3,0.3c-0.3,0.2-0.6,0.6-0.7,1l-2.2-1c0.6-1.7,2-2.6,4.2-2.6h0.2
	c1.2,0,2.2,0.3,3,0.9c0.7,0.6,1.1,1.5,1.1,2.5v0.3c0,0.8-0.2,1.5-0.6,2.1s-1.1,1.1-2.1,1.7l-1.9,1c-0.7,0.4-1.1,1-1.2,1.8h5.8v2.3
	L628.7,27.8L628.7,27.8z"/>
<path class="st3" d="M647.4,27.8l-2.9-4.4l-2.9,4.4h-3l4.3-6.4l-4.2-6.2h3.1l2.7,4.2l2.7-4.2h3l-4.2,6.2l4.3,6.4
	C650.5,27.8,647.4,27.8,647.4,27.8z"/>
<rect id="rectangle-10-5-2" x="131.3" y="267.6" class="st2" width="50" height="159.3"/>
<rect id="rectangle-10-6-3" x="71.2" y="170.6" class="st3" width="50" height="256.3"/>
<path class="st1" d="M80.1,453.5v-9.2h-3.4v-2h9.1v2h-3.4v9.2H80.1z"/>
<path class="st1" d="M90,453.7c-0.8,0-1.5-0.2-2.1-0.5c-0.6-0.3-1.1-0.8-1.4-1.4c-0.4-0.6-0.5-1.4-0.5-2.2v-0.5
	c0-0.9,0.2-1.6,0.5-2.2c0.4-0.6,0.8-1.1,1.4-1.4c0.6-0.3,1.3-0.5,2.1-0.5h0.1c0.8,0,1.5,0.2,2.1,0.5s1.1,0.8,1.4,1.4
	c0.4,0.6,0.5,1.4,0.5,2.2v0.5c0,0.9-0.2,1.6-0.5,2.2s-0.8,1.1-1.4,1.4c-0.6,0.3-1.3,0.5-2.1,0.5H90z M90,451.8h0.1
	c0.5,0,1-0.2,1.3-0.5s0.5-0.9,0.5-1.6v-0.6c0-0.7-0.2-1.3-0.5-1.6s-0.8-0.5-1.3-0.5H90c-0.5,0-1,0.2-1.3,0.5s-0.5,0.9-0.5,1.6v0.6
	c0,0.7,0.2,1.3,0.5,1.6S89.5,451.8,90,451.8z"/>
<path class="st1" d="M95.8,453.5v-8.3h2v1c0.3-0.4,0.6-0.7,1-0.9c0.4-0.2,0.9-0.3,1.4-0.3h0.2c1.2,0,2,0.4,2.5,1.3
	c0.3-0.4,0.6-0.8,1.1-1s0.9-0.4,1.5-0.4h0.2c0.9,0,1.6,0.3,2.1,0.9c0.5,0.6,0.8,1.4,0.8,2.5v5.1h-2.2v-4.8c0-0.6-0.1-1-0.3-1.3
	c-0.2-0.3-0.5-0.5-1-0.5h-0.1c-0.4,0-0.7,0.2-1,0.5c-0.3,0.3-0.5,0.8-0.5,1.5v4.6H101v-4.8c0-0.6-0.1-1-0.3-1.3
	c-0.2-0.3-0.5-0.5-1-0.5h-0.1c-0.4,0-0.7,0.2-1,0.5c-0.3,0.3-0.5,0.8-0.5,1.5v4.6H95.8L95.8,453.5z"/>
<path class="st1" d="M119.3,453.7c-1.7,0-2.9-0.5-3.8-1.5c-0.9-1-1.3-2.3-1.3-4.1v-0.6c0-1.1,0.2-2.1,0.6-2.9c0.4-0.8,1-1.5,1.7-1.9
	s1.7-0.7,2.8-0.7h0.1c1.1,0,2.1,0.3,2.8,0.8s1.3,1.2,1.6,2.1l-2.2,0.8c-0.1-0.6-0.4-1-0.8-1.2c-0.4-0.3-0.9-0.4-1.4-0.4h-0.1
	c-0.9,0-1.6,0.3-2,0.8c-0.5,0.6-0.7,1.4-0.7,2.6v0.7c0,1.2,0.2,2.1,0.7,2.6c0.5,0.5,1.2,0.8,2.1,0.8h0.1c0.6,0,1.1-0.1,1.5-0.4
	c0.4-0.2,0.7-0.7,0.9-1.2l2.1,0.8c-0.3,0.9-0.9,1.6-1.6,2.1c-0.8,0.5-1.7,0.7-2.9,0.7H119.3L119.3,453.7z"/>
<path class="st1" d="M125.4,453.5v-11.7h2.2v11.7H125.4z"/>
<path class="st1" d="M132.1,453.7c-0.9,0-1.6-0.2-2.1-0.7c-0.5-0.4-0.7-1-0.7-1.8c0-0.7,0.2-1.3,0.7-1.7c0.4-0.4,1.1-0.7,1.9-0.8
	l2.6-0.3v-0.1c0-1-0.4-1.5-1.3-1.5H133c-0.4,0-0.7,0.1-1,0.2c-0.3,0.1-0.5,0.4-0.7,0.8l-1.7-0.9c0.2-0.6,0.7-1,1.2-1.4
	c0.6-0.3,1.3-0.5,2.1-0.5h0.2c2.3,0,3.5,1.1,3.5,3.3v5.2h-2v-1c-0.3,0.4-0.6,0.7-1.1,0.9C133.3,453.6,132.8,453.7,132.1,453.7
	L132.1,453.7z M134.5,449.8l-1.7,0.2c-0.5,0.1-0.8,0.2-1,0.3c-0.2,0.1-0.3,0.3-0.3,0.6c0,0.3,0.1,0.5,0.3,0.7
	c0.2,0.2,0.5,0.2,0.9,0.2h0.1c0.5,0,0.9-0.2,1.2-0.5c0.3-0.3,0.4-0.7,0.4-1.3V449.8z"/>
<path class="st1" d="M138.7,453.5v-8.3h2v1c0.3-0.4,0.6-0.7,1.1-0.9c0.4-0.2,0.9-0.3,1.4-0.3h0.2c0.9,0,1.7,0.3,2.2,0.9
	c0.5,0.6,0.8,1.4,0.8,2.5v5.1h-2.2v-4.8c0-0.6-0.1-1-0.3-1.3c-0.2-0.3-0.6-0.5-1.1-0.5h-0.1c-0.3,0-0.5,0.1-0.8,0.2
	s-0.5,0.4-0.6,0.6s-0.2,0.7-0.2,1.1v4.6H138.7z"/>
<path class="st1" d="M152,453.7c-1.2,0-2.2-0.4-3-1.1c-0.7-0.7-1.1-1.7-1.1-3.1v-0.5c0-0.9,0.2-1.6,0.5-2.2c0.3-0.6,0.8-1.1,1.4-1.4
	c0.6-0.3,1.3-0.5,2.1-0.5h0.1c0.8,0,1.5,0.2,2,0.6c0.5,0.4,0.9,0.9,1.2,1.5l-1.8,0.8c-0.1-0.3-0.3-0.5-0.5-0.7
	c-0.2-0.2-0.5-0.3-0.9-0.3H152c-0.5,0-1,0.2-1.3,0.5s-0.5,0.9-0.5,1.6v0.6c0,0.8,0.2,1.3,0.5,1.6s0.8,0.5,1.3,0.5h0.1
	c0.4,0,0.7-0.1,0.9-0.2c0.2-0.2,0.4-0.4,0.6-0.7l1.7,0.9c-0.2,0.5-0.6,1-1.2,1.4c-0.6,0.4-1.2,0.5-2,0.5H152z"/>
<path class="st1" d="M156.8,456.7v-1.9h0.6c0.5,0,0.8-0.1,1-0.2c0.2-0.1,0.4-0.4,0.6-0.9l0.1-0.2l-3.2-8.2h2.4l1.9,5.8l1.7-5.8h2.3
	l-2.9,8.4c-0.2,0.7-0.5,1.2-0.7,1.6c-0.2,0.4-0.5,0.7-0.8,0.9c-0.3,0.2-0.6,0.4-1,0.4c-0.4,0.1-0.8,0.1-1.4,0.1H156.8z"/>
<path class="st1" d="M165.7,445.9l-0.4-4.1h2.2l-0.4,4.1H165.7z"/>
<path class="st1" d="M171.9,453.7c-1.9,0-3.1-0.6-3.6-1.9l1.7-0.9c0.1,0.3,0.4,0.6,0.7,0.7c0.3,0.2,0.7,0.2,1.2,0.2h0.2
	c0.9,0,1.4-0.2,1.4-0.7v-0.1c0-0.4-0.3-0.6-0.8-0.7l-1.7-0.2c-0.8-0.1-1.4-0.4-1.9-0.8c-0.4-0.4-0.6-1-0.6-1.7v-0.2
	c0-0.8,0.3-1.4,0.9-1.9c0.6-0.5,1.4-0.7,2.4-0.7h0.2c0.8,0,1.5,0.2,2.1,0.5c0.6,0.3,1,0.8,1.2,1.4l-1.8,0.8
	c-0.3-0.6-0.8-0.8-1.6-0.8h-0.2c-0.8,0-1.2,0.2-1.2,0.7v0.1c0,0.2,0.1,0.3,0.2,0.4c0.1,0.1,0.3,0.2,0.6,0.2l1.7,0.2
	c0.8,0.1,1.4,0.4,1.8,0.8c0.4,0.5,0.6,1,0.6,1.7v0.2c0,0.8-0.3,1.5-0.9,1.9c-0.6,0.4-1.5,0.6-2.6,0.6H171.9z"/>
<path class="st1" d="M76.6,472.7v-9.2h-3.4v-2h9.1v2H79v9.2H76.6z"/>
<path class="st1" d="M83.6,472.7V461h2.2v4.2c0.6-0.7,1.3-1,2.2-1h0.2c0.9,0,1.7,0.3,2.2,0.9c0.5,0.6,0.8,1.4,0.8,2.5v5.1h-2.2v-4.8
	c0-0.6-0.1-1-0.3-1.3c-0.2-0.3-0.6-0.5-1.1-0.5h-0.1c-0.3,0-0.5,0.1-0.8,0.2s-0.5,0.4-0.6,0.6s-0.2,0.7-0.2,1.1v4.6H83.6z"/>
<path class="st1" d="M96.8,472.9c-1.3,0-2.2-0.4-2.9-1.1s-1-1.7-1-3v-0.5c0-1.3,0.4-2.3,1.1-3c0.7-0.7,1.7-1.1,2.9-1.1h0.1
	c1.2,0,2.1,0.4,2.7,1.1c0.7,0.7,1,1.7,1,2.9v1h-5.6c0.1,1.3,0.7,1.9,1.8,1.9H97c0.8,0,1.4-0.3,1.8-0.8l1.6,1.1
	c-0.3,0.5-0.7,0.9-1.3,1.2c-0.6,0.3-1.3,0.4-2,0.4H96.8L96.8,472.9z M95.1,467.7h3.4v0c0-1.1-0.5-1.7-1.6-1.7h-0.1
	C95.8,466,95.2,466.6,95.1,467.7z"/>
<path class="st1" d="M106.5,472.7v-11.2h4.5c1.1,0,2.1,0.2,2.9,0.7s1.4,1.1,1.8,1.8c0.4,0.8,0.6,1.7,0.6,2.8v0.6
	c0,1.6-0.4,2.9-1.3,3.9s-2.2,1.4-3.9,1.4C111,472.7,106.5,472.7,106.5,472.7z M108.9,470.7h2.1c0.9,0,1.7-0.3,2.2-0.8
	c0.5-0.5,0.8-1.3,0.8-2.4v-0.7c0-1.1-0.3-1.9-0.8-2.4c-0.5-0.5-1.2-0.8-2.2-0.8h-2.1V470.7z"/>
<path class="st1" d="M118.1,463.2V461h2.3v2.2H118.1z M118.1,472.7v-8.3h2.2v8.3H118.1z"/>
<path class="st1" d="M124.7,472.7l-3.1-8.3h2.4l1.8,5.5l1.8-5.5h2.2l-3.1,8.3H124.7L124.7,472.7z"/>
<path class="st1" d="M130.9,463.2V461h2.3v2.2H130.9z M131,472.7v-8.3h2.2v8.3H131z"/>
<path class="st1" d="M138.4,472.9c-1.9,0-3.1-0.6-3.6-1.9l1.7-0.9c0.1,0.3,0.4,0.6,0.7,0.7c0.3,0.2,0.7,0.2,1.2,0.2h0.2
	c0.9,0,1.4-0.2,1.4-0.7v-0.1c0-0.4-0.3-0.6-0.8-0.7l-1.7-0.2c-0.8-0.1-1.4-0.4-1.9-0.8c-0.4-0.4-0.6-1-0.6-1.7v-0.2
	c0-0.8,0.3-1.4,0.9-1.9c0.6-0.5,1.4-0.7,2.4-0.7h0.2c0.8,0,1.5,0.2,2.1,0.5c0.6,0.3,1,0.8,1.2,1.4l-1.8,0.8
	c-0.3-0.6-0.8-0.8-1.6-0.8h-0.2c-0.8,0-1.2,0.2-1.2,0.7v0.1c0,0.2,0.1,0.3,0.2,0.4c0.1,0.1,0.3,0.2,0.6,0.2l1.7,0.2
	c0.8,0.1,1.4,0.4,1.8,0.8c0.4,0.5,0.6,1,0.6,1.7v0.2c0,0.8-0.3,1.5-0.9,1.9c-0.6,0.4-1.5,0.6-2.6,0.6H138.4z"/>
<path class="st1" d="M143.6,463.2V461h2.3v2.2H143.6z M143.6,472.7v-8.3h2.2v8.3H143.6z"/>
<path class="st1" d="M151.5,472.9c-0.8,0-1.5-0.2-2.1-0.5c-0.6-0.3-1.1-0.8-1.4-1.4c-0.4-0.6-0.5-1.4-0.5-2.2v-0.5
	c0-0.9,0.2-1.6,0.5-2.2c0.4-0.6,0.8-1.1,1.4-1.4c0.6-0.3,1.3-0.5,2.1-0.5h0.1c0.8,0,1.5,0.2,2.1,0.5s1.1,0.8,1.4,1.4
	c0.4,0.6,0.5,1.4,0.5,2.2v0.5c0,0.9-0.2,1.6-0.5,2.2s-0.8,1.1-1.4,1.4s-1.3,0.5-2.1,0.5H151.5z M151.5,471h0.1c0.5,0,1-0.2,1.3-0.5
	s0.5-0.9,0.5-1.6v-0.6c0-0.7-0.2-1.3-0.5-1.6s-0.8-0.5-1.3-0.5h-0.1c-0.5,0-1,0.2-1.3,0.5s-0.5,0.9-0.5,1.6v0.6
	c0,0.7,0.2,1.3,0.5,1.6S151,471,151.5,471z"/>
<path class="st1" d="M157.3,472.7v-8.3h2v1c0.3-0.4,0.6-0.7,1.1-0.9c0.4-0.2,0.9-0.3,1.4-0.3h0.2c0.9,0,1.7,0.3,2.2,0.9
	c0.5,0.6,0.8,1.4,0.8,2.5v5.1h-2.2v-4.8c0-0.6-0.1-1-0.3-1.3c-0.2-0.3-0.6-0.5-1.1-0.5h-0.1c-0.3,0-0.5,0.1-0.8,0.2
	s-0.5,0.4-0.6,0.6s-0.2,0.7-0.2,1.1v4.6H157.3z"/>
<path class="st1" d="M170.9,472.7V471c0-0.8,0.2-1.5,0.6-2.1c0.4-0.6,0.9-1.1,1.6-1.5l1.9-1c0.9-0.4,1.3-1,1.3-1.6v-0.2
	c0-0.3-0.1-0.6-0.4-0.8s-0.6-0.3-1.1-0.3h-0.1c-0.5,0-0.9,0.1-1.2,0.3c-0.3,0.2-0.5,0.5-0.6,0.9l-1.9-0.8c0.5-1.5,1.8-2.3,3.8-2.3
	h0.2c1.1,0,2,0.3,2.6,0.8c0.7,0.6,1,1.3,1,2.2v0.3c0,0.7-0.2,1.3-0.6,1.8c-0.4,0.5-1,1-1.9,1.5l-1.6,0.9c-0.6,0.4-1,0.9-1,1.6h5.1v2
	H170.9z"/>
<rect id="rectangle-10-5-3" x="309.8" y="267.6" class="st2" width="50" height="159.3"/>
<rect id="rectangle-10-6-4" x="249.7" y="170.6" class="st3" width="50" height="256.3"/>
<path class="st1" d="M263.9,453.7c-1.7,0-2.9-0.5-3.8-1.5c-0.9-1-1.3-2.3-1.3-4.1v-0.6c0-1.1,0.2-2.1,0.6-2.9c0.4-0.8,1-1.5,1.7-1.9
	s1.7-0.7,2.8-0.7h0.1c1.1,0,2.1,0.3,2.8,0.8s1.3,1.2,1.6,2.1l-2.2,0.8c-0.1-0.6-0.4-1-0.8-1.2c-0.4-0.3-0.9-0.4-1.4-0.4h-0.1
	c-0.9,0-1.6,0.3-2,0.8c-0.5,0.6-0.7,1.4-0.7,2.6v0.7c0,1.2,0.2,2.1,0.7,2.6c0.5,0.5,1.2,0.8,2.1,0.8h0.1c0.6,0,1.1-0.1,1.5-0.4
	c0.4-0.2,0.7-0.7,0.9-1.2l2.1,0.8c-0.3,0.9-0.9,1.6-1.6,2.1c-0.8,0.5-1.7,0.7-2.9,0.7H263.9z"/>
<path class="st1" d="M272.4,453.7c-0.9,0-1.6-0.2-2.1-0.7c-0.5-0.4-0.7-1-0.7-1.8c0-0.7,0.2-1.3,0.7-1.7c0.4-0.4,1.1-0.7,1.9-0.8
	l2.6-0.3v-0.1c0-1-0.4-1.5-1.3-1.5h-0.2c-0.4,0-0.7,0.1-1,0.2c-0.3,0.1-0.5,0.4-0.7,0.8l-1.7-0.9c0.2-0.6,0.7-1,1.2-1.4
	c0.6-0.3,1.3-0.5,2.1-0.5h0.2c2.3,0,3.5,1.1,3.5,3.3v5.2h-2v-1c-0.3,0.4-0.6,0.7-1.1,0.9C273.6,453.6,273.1,453.7,272.4,453.7
	L272.4,453.7z M274.8,449.8l-1.7,0.2c-0.5,0.1-0.8,0.2-1,0.3c-0.2,0.1-0.3,0.3-0.3,0.6c0,0.3,0.1,0.5,0.3,0.7
	c0.2,0.2,0.5,0.2,0.9,0.2h0.1c0.5,0,0.9-0.2,1.2-0.5c0.3-0.3,0.4-0.7,0.4-1.3V449.8z"/>
<path class="st1" d="M279,453.5v-11.7h2.2v11.7H279z"/>
<path class="st1" d="M283.3,453.5v-11.7h2.2v11.7H283.3z"/>
<path class="st1" d="M295.3,453.7c-0.8,0-1.5-0.2-2.1-0.5c-0.6-0.3-1.1-0.8-1.4-1.4c-0.4-0.6-0.5-1.4-0.5-2.2v-0.5
	c0-0.9,0.2-1.6,0.5-2.2c0.4-0.6,0.8-1.1,1.4-1.4c0.6-0.3,1.3-0.5,2.1-0.5h0.1c0.8,0,1.5,0.2,2.1,0.5s1.1,0.8,1.4,1.4
	c0.4,0.6,0.5,1.4,0.5,2.2v0.5c0,0.9-0.2,1.6-0.5,2.2s-0.8,1.1-1.4,1.4c-0.6,0.3-1.3,0.5-2.1,0.5H295.3z M295.3,451.8h0.1
	c0.5,0,1-0.2,1.3-0.5s0.5-0.9,0.5-1.6v-0.6c0-0.7-0.2-1.3-0.5-1.6s-0.8-0.5-1.3-0.5h-0.1c-0.5,0-1,0.2-1.3,0.5s-0.5,0.9-0.5,1.6v0.6
	c0,0.7,0.2,1.3,0.5,1.6S294.7,451.8,295.3,451.8z"/>
<path class="st1" d="M301.8,453.5v-6.4h-1.6v-1.9h1.6v-0.4c0-1,0.3-1.8,0.8-2.4c0.5-0.5,1.4-0.8,2.6-0.8h1.4v1.9h-1.3
	c-0.4,0-0.7,0.1-0.9,0.3c-0.2,0.2-0.3,0.5-0.3,0.9v0.4h2.5l-0.3,1.9h-2.2v6.4H301.8z"/>
<path class="st1" d="M312,453.5v-11.2h4.5c1.1,0,2.1,0.2,2.9,0.7s1.4,1.1,1.8,1.8c0.4,0.8,0.6,1.7,0.6,2.8v0.6
	c0,1.6-0.4,2.9-1.3,3.9s-2.2,1.4-3.9,1.4H312z M314.3,451.5h2.1c0.9,0,1.7-0.3,2.2-0.8c0.5-0.5,0.8-1.3,0.8-2.4v-0.7
	c0-1.1-0.3-1.9-0.8-2.4c-0.5-0.5-1.2-0.8-2.2-0.8h-2.1V451.5z"/>
<path class="st1" d="M326.4,453.7c-0.9,0-1.6-0.3-2.2-0.9c-0.5-0.6-0.8-1.4-0.8-2.5v-5.1h2.2v4.8c0,0.6,0.1,1,0.3,1.3
	c0.2,0.3,0.5,0.5,1,0.5h0.1c0.3,0,0.5-0.1,0.7-0.2c0.2-0.1,0.4-0.4,0.6-0.6c0.2-0.3,0.2-0.7,0.2-1.1v-4.6h2.2v8.3h-2v-1
	c-0.3,0.4-0.6,0.7-1,0.9c-0.4,0.2-0.9,0.3-1.4,0.3H326.4z"/>
<path class="st1" d="M336.8,453.6c-1.1,0-1.9-0.2-2.4-0.7s-0.7-1.2-0.7-2.2v-3.6H332v-1.9h1.7v-2.4h2.2v2.4h2.5l-0.3,1.9h-2.3v3.5
	c0,0.4,0.1,0.7,0.3,0.9c0.2,0.2,0.5,0.3,0.8,0.3h1.4v1.9H336.8z"/>
<path class="st1" d="M340.1,456.7v-1.9h0.6c0.5,0,0.8-0.1,1-0.2c0.2-0.1,0.4-0.4,0.6-0.9l0.1-0.2l-3.2-8.2h2.4l1.9,5.8l1.7-5.8h2.3
	l-2.9,8.4c-0.2,0.7-0.5,1.2-0.7,1.6c-0.2,0.4-0.5,0.7-0.8,0.9c-0.3,0.2-0.6,0.4-1,0.4c-0.4,0.1-0.8,0.1-1.4,0.1H340.1z"/>
<path class="st1" d="M348.4,447.5v-2.4h2.4v2.4H348.4z M348.4,453.5V451h2.4v2.4H348.4z"/>
<path class="st1" d="M237,472.7v-11.2h2.9l3.2,8.1l3.2-8.1h2.8v11.2h-2.2v-7.6l-3,7.6h-1.7l-3-7.6v7.6H237z"/>
<path class="st1" d="M255.1,472.9c-0.8,0-1.5-0.2-2.1-0.5c-0.6-0.3-1.1-0.8-1.4-1.4c-0.4-0.6-0.5-1.4-0.5-2.2v-0.5
	c0-0.9,0.2-1.6,0.5-2.2c0.4-0.6,0.8-1.1,1.4-1.4c0.6-0.3,1.3-0.5,2.1-0.5h0.1c0.8,0,1.5,0.2,2.1,0.5s1.1,0.8,1.4,1.4
	c0.4,0.6,0.5,1.4,0.5,2.2v0.5c0,0.9-0.2,1.6-0.5,2.2s-0.8,1.1-1.4,1.4s-1.3,0.5-2.1,0.5H255.1z M255.1,471h0.1c0.5,0,1-0.2,1.3-0.5
	s0.5-0.9,0.5-1.6v-0.6c0-0.7-0.2-1.3-0.5-1.6s-0.8-0.5-1.3-0.5h-0.1c-0.5,0-1,0.2-1.3,0.5s-0.5,0.9-0.5,1.6v0.6
	c0,0.7,0.2,1.3,0.5,1.6S254.6,471,255.1,471z"/>
<path class="st1" d="M263.9,472.9c-0.7,0-1.3-0.2-1.8-0.5c-0.5-0.3-0.9-0.8-1.2-1.4c-0.3-0.6-0.4-1.4-0.4-2.3v-0.5
	c0-0.9,0.1-1.6,0.4-2.2s0.7-1.1,1.2-1.4c0.5-0.3,1.1-0.5,1.8-0.5h0.1c1,0,1.8,0.3,2.3,1V461h2.2v11.7h-2v-1
	c-0.6,0.8-1.4,1.2-2.6,1.2H263.9z M264.5,471h0.1c0.3,0,0.6-0.1,0.8-0.2c0.3-0.1,0.5-0.4,0.7-0.7c0.2-0.3,0.3-0.7,0.3-1.3v-0.5
	c0-0.5-0.1-0.9-0.3-1.3c-0.2-0.3-0.4-0.6-0.7-0.7c-0.3-0.1-0.5-0.2-0.8-0.2h-0.1c-0.5,0-0.9,0.2-1.3,0.5s-0.5,0.9-0.5,1.6v0.5
	c0,0.8,0.2,1.3,0.5,1.7S264,471,264.5,471z"/>
<path class="st1" d="M274.2,472.9c-1.3,0-2.2-0.4-2.9-1.1s-1-1.7-1-3v-0.5c0-1.3,0.4-2.3,1.1-3c0.7-0.7,1.7-1.1,2.9-1.1h0.1
	c1.2,0,2.1,0.4,2.7,1.1c0.7,0.7,1,1.7,1,2.9v1h-5.6c0.1,1.3,0.7,1.9,1.8,1.9h0.2c0.8,0,1.4-0.3,1.8-0.8l1.6,1.1
	c-0.3,0.5-0.7,0.9-1.3,1.2c-0.6,0.3-1.3,0.4-2,0.4H274.2z M272.4,467.7h3.4v0c0-1.1-0.5-1.7-1.6-1.7h-0.1
	C273.2,466,272.6,466.6,272.4,467.7z"/>
<path class="st1" d="M279.6,472.7v-8.3h2v1.4c0.2-0.5,0.5-0.9,0.8-1.1s0.8-0.4,1.4-0.4h0.9v2.1h-0.8c-0.3,0-0.6,0.1-0.9,0.2
	c-0.3,0.1-0.6,0.3-0.8,0.7s-0.3,0.7-0.3,1.3v4.1H279.6z"/>
<path class="st1" d="M285.9,472.7v-8.3h2v1c0.3-0.4,0.6-0.7,1.1-0.9c0.4-0.2,0.9-0.3,1.4-0.3h0.2c0.9,0,1.7,0.3,2.2,0.9
	c0.5,0.6,0.8,1.4,0.8,2.5v5.1h-2.2v-4.8c0-0.6-0.1-1-0.3-1.3c-0.2-0.3-0.6-0.5-1.1-0.5h-0.1c-0.3,0-0.5,0.1-0.8,0.2
	s-0.5,0.4-0.6,0.6c-0.2,0.3-0.2,0.7-0.2,1.1v4.6H285.9z"/>
<path class="st1" d="M298.8,461.5h2.5l2.1,7.8l2-7.8h2.1l2,7.8l2.1-7.8h2.4l-3.4,11.2h-2.2l-2-7.5l-2,7.5h-2.2L298.8,461.5z"/>
<path class="st1" d="M316.9,472.9c-0.9,0-1.6-0.2-2.1-0.7c-0.5-0.4-0.7-1.1-0.7-1.8c0-0.7,0.2-1.3,0.7-1.7c0.4-0.4,1.1-0.7,1.9-0.8
	l2.6-0.3v-0.1c0-1-0.4-1.5-1.3-1.5h-0.2c-0.4,0-0.7,0.1-1,0.2c-0.3,0.1-0.5,0.4-0.7,0.8l-1.7-0.9c0.2-0.6,0.7-1,1.2-1.4
	c0.6-0.3,1.3-0.5,2.1-0.5h0.2c2.3,0,3.5,1.1,3.5,3.3v5.2h-2v-1c-0.3,0.4-0.6,0.7-1.1,0.9C318,472.8,317.5,472.9,316.9,472.9
	L316.9,472.9z M319.3,469l-1.7,0.2c-0.5,0.1-0.8,0.2-1,0.3c-0.2,0.1-0.3,0.3-0.3,0.6c0,0.3,0.1,0.5,0.3,0.7s0.5,0.2,0.9,0.2h0.1
	c0.5,0,0.9-0.2,1.2-0.5c0.3-0.3,0.4-0.7,0.4-1.3V469z"/>
<path class="st1" d="M323.5,472.7v-8.3h2v1.4c0.2-0.5,0.5-0.9,0.8-1.1s0.8-0.4,1.4-0.4h0.9v2.1h-0.8c-0.3,0-0.6,0.1-0.9,0.2
	c-0.3,0.1-0.6,0.3-0.8,0.7s-0.3,0.7-0.3,1.3v4.1H323.5z"/>
<path class="st1" d="M331,472.7v-6.4h-1.6v-1.9h1.6v-0.4c0-1,0.3-1.8,0.8-2.4c0.5-0.5,1.4-0.8,2.6-0.8h1.4v1.9h-1.3
	c-0.4,0-0.7,0.1-0.9,0.3c-0.2,0.2-0.3,0.5-0.3,0.9v0.4h2.5l-0.3,1.9h-2.2v6.4H331z"/>
<path class="st1" d="M339.1,472.9c-0.9,0-1.6-0.2-2.1-0.7c-0.5-0.4-0.7-1.1-0.7-1.8c0-0.7,0.2-1.3,0.7-1.7c0.4-0.4,1.1-0.7,1.9-0.8
	l2.6-0.3v-0.1c0-1-0.4-1.5-1.3-1.5H340c-0.4,0-0.7,0.1-1,0.2c-0.3,0.1-0.5,0.4-0.7,0.8l-1.7-0.9c0.2-0.6,0.7-1,1.2-1.4
	c0.6-0.3,1.3-0.5,2.1-0.5h0.2c2.3,0,3.5,1.1,3.5,3.3v5.2h-2v-1c-0.3,0.4-0.6,0.7-1.1,0.9C340.3,472.8,339.7,472.9,339.1,472.9
	L339.1,472.9z M341.5,469l-1.7,0.2c-0.5,0.1-0.8,0.2-1,0.3c-0.2,0.1-0.3,0.3-0.3,0.6c0,0.3,0.1,0.5,0.3,0.7s0.5,0.2,0.9,0.2h0.1
	c0.5,0,0.9-0.2,1.2-0.5c0.3-0.3,0.4-0.7,0.4-1.3V469z"/>
<path class="st1" d="M345.7,472.7v-8.3h2v1.4c0.2-0.5,0.5-0.9,0.8-1.1s0.8-0.4,1.4-0.4h0.9v2.1H350c-0.3,0-0.6,0.1-0.9,0.2
	c-0.3,0.1-0.6,0.3-0.8,0.7s-0.3,0.7-0.3,1.3v4.1H345.7z"/>
<path class="st1" d="M355.5,472.9c-1.3,0-2.2-0.4-2.9-1.1s-1-1.7-1-3v-0.5c0-1.3,0.4-2.3,1.1-3c0.7-0.7,1.7-1.1,2.9-1.1h0.1
	c1.2,0,2.1,0.4,2.7,1.1c0.7,0.7,1,1.7,1,2.9v1h-5.6c0.1,1.3,0.7,1.9,1.8,1.9h0.2c0.8,0,1.4-0.3,1.8-0.8l1.6,1.1
	c-0.3,0.5-0.7,0.9-1.3,1.2c-0.6,0.3-1.3,0.4-2,0.4H355.5z M353.7,467.7h3.4v0c0-1.1-0.5-1.7-1.6-1.7h-0.1
	C354.5,466,353.9,466.6,353.7,467.7z"/>
<path class="st1" d="M365.2,472.7v-11.2h2.3v11.2H365.2z"/>
<path class="st1" d="M370.2,472.7v-11.2h2.3v11.2H370.2z"/>
<path class="st3" d="M285.5,514.5v-11.2h4.5c1.1,0,2.1,0.2,2.9,0.7s1.4,1.1,1.8,1.8c0.4,0.8,0.6,1.7,0.6,2.8v0.6
	c0,1.6-0.4,2.9-1.3,3.9s-2.2,1.4-3.9,1.4H285.5z M287.8,512.5h2.1c0.9,0,1.7-0.3,2.2-0.8c0.5-0.5,0.8-1.3,0.8-2.4v-0.7
	c0-1.1-0.3-1.9-0.8-2.4c-0.5-0.5-1.2-0.8-2.2-0.8h-2.1V512.5z"/>
<path class="st3" d="M297.3,514.5v-11.2h2.3v9.2h4.9v2H297.3z"/>
<path class="st3" d="M310.2,514.7c-2.3,0-3.8-0.8-4.5-2.5l2-1c0.4,1,1.2,1.5,2.5,1.5h0.2c1.4,0,2-0.4,2-1.3v-0.2
	c0-0.3-0.1-0.6-0.4-0.9c-0.2-0.2-0.6-0.4-1-0.4l-1.7-0.2c-1.1-0.1-1.9-0.5-2.4-1c-0.6-0.5-0.8-1.3-0.8-2.2v-0.2
	c0-0.7,0.2-1.2,0.5-1.7c0.3-0.5,0.8-0.9,1.4-1.1c0.6-0.3,1.4-0.4,2.2-0.4h0.2c1,0,1.9,0.2,2.6,0.6s1.2,1,1.5,1.8l-2,0.9
	c-0.3-0.8-1-1.3-2.1-1.3h-0.2c-0.6,0-1,0.1-1.4,0.3s-0.5,0.5-0.5,0.9v0.2c0,0.7,0.4,1,1.3,1.2l1.7,0.2c1.1,0.1,1.9,0.5,2.5,1.1
	c0.5,0.6,0.8,1.3,0.8,2.3v0.2c0,1.1-0.4,1.9-1.1,2.5c-0.7,0.6-1.8,0.9-3.2,0.9H310.2z"/>
<path class="st3" d="M320.3,514.7c-2.3,0-3.8-0.8-4.5-2.5l2-1c0.4,1,1.2,1.5,2.5,1.5h0.2c1.4,0,2-0.4,2-1.3v-0.2
	c0-0.3-0.1-0.6-0.4-0.9c-0.2-0.2-0.6-0.4-1-0.4l-1.7-0.2c-1.1-0.1-1.9-0.5-2.4-1c-0.6-0.5-0.8-1.3-0.8-2.2v-0.2
	c0-0.7,0.2-1.2,0.5-1.7c0.3-0.5,0.8-0.9,1.4-1.1c0.6-0.3,1.4-0.4,2.2-0.4h0.2c1,0,1.9,0.2,2.6,0.6s1.2,1,1.5,1.8l-2,0.9
	c-0.3-0.8-1-1.3-2.1-1.3h-0.2c-0.6,0-1,0.1-1.4,0.3s-0.5,0.5-0.5,0.9v0.2c0,0.7,0.4,1,1.3,1.2l1.7,0.2c1.1,0.1,1.9,0.5,2.5,1.1
	c0.5,0.6,0.8,1.3,0.8,2.3v0.2c0,1.1-0.4,1.9-1.1,2.5c-0.7,0.6-1.8,0.9-3.2,0.9H320.3z"/>
<rect id="rectangle-10-5-4" x="488.1" y="267.6" class="st2" width="50" height="159.3"/>
<rect id="rectangle-10-6-5" x="427.9" y="107.6" class="st3" width="50" height="319.3"/>
<path class="st3" d="M463.8,514.5v-11.2h4.5c1.1,0,2.1,0.2,2.9,0.7s1.4,1.1,1.8,1.8c0.4,0.8,0.6,1.7,0.6,2.8v0.6
	c0,1.6-0.4,2.9-1.3,3.9s-2.2,1.4-3.9,1.4H463.8z M466.1,512.5h2.1c0.9,0,1.7-0.3,2.2-0.8c0.5-0.5,0.8-1.3,0.8-2.4v-0.7
	c0-1.1-0.3-1.9-0.8-2.4c-0.5-0.5-1.2-0.8-2.2-0.8h-2.1V512.5z"/>
<path class="st3" d="M475.6,514.5v-11.2h2.3v9.2h4.9v2H475.6z"/>
<path class="st3" d="M488.5,514.7c-2.3,0-3.8-0.8-4.5-2.5l2-1c0.4,1,1.2,1.5,2.5,1.5h0.2c1.4,0,2-0.4,2-1.3v-0.2
	c0-0.3-0.1-0.6-0.4-0.9c-0.2-0.2-0.6-0.4-1-0.4l-1.7-0.2c-1.1-0.1-1.9-0.5-2.4-1c-0.6-0.5-0.8-1.3-0.8-2.2v-0.2
	c0-0.7,0.2-1.2,0.5-1.7c0.3-0.5,0.8-0.9,1.4-1.1c0.6-0.3,1.4-0.4,2.2-0.4h0.2c1,0,1.9,0.2,2.6,0.6s1.2,1,1.5,1.8l-2,0.9
	c-0.3-0.8-1-1.3-2.1-1.3h-0.2c-0.6,0-1,0.1-1.4,0.3s-0.5,0.5-0.5,0.9v0.2c0,0.7,0.4,1,1.3,1.2l1.7,0.2c1.1,0.1,1.9,0.5,2.5,1.1
	c0.5,0.6,0.8,1.3,0.8,2.3v0.2c0,1.1-0.4,1.9-1.1,2.5c-0.7,0.6-1.8,0.9-3.2,0.9H488.5z"/>
<path class="st3" d="M498.6,514.7c-2.3,0-3.8-0.8-4.5-2.5l2-1c0.4,1,1.2,1.5,2.5,1.5h0.2c1.4,0,2-0.4,2-1.3v-0.2
	c0-0.3-0.1-0.6-0.4-0.9c-0.2-0.2-0.6-0.4-1-0.4l-1.7-0.2c-1.1-0.1-1.9-0.5-2.4-1c-0.6-0.5-0.8-1.3-0.8-2.2v-0.2
	c0-0.7,0.2-1.2,0.5-1.7c0.3-0.5,0.8-0.9,1.4-1.1c0.6-0.3,1.4-0.4,2.2-0.4h0.2c1,0,1.9,0.2,2.6,0.6s1.2,1,1.5,1.8l-2,0.9
	c-0.3-0.8-1-1.3-2.1-1.3h-0.2c-0.6,0-1,0.1-1.4,0.3s-0.5,0.5-0.5,0.9v0.2c0,0.7,0.4,1,1.3,1.2l1.7,0.2c1.1,0.1,1.9,0.5,2.5,1.1
	c0.5,0.6,0.8,1.3,0.8,2.3v0.2c0,1.1-0.4,1.9-1.1,2.5c-0.7,0.6-1.8,0.9-3.2,0.9H498.6z"/>
<path class="st1" d="M422.7,453.5v-11.2h2.9l3.2,8.1l3.2-8.1h2.8v11.2h-2.2v-7.6l-3,7.6H428l-3-7.6v7.6H422.7z"/>
<path class="st1" d="M437.2,444v-2.2h2.3v2.2H437.2z M437.2,453.5v-8.3h2.2v8.3H437.2z"/>
<path class="st1" d="M445.2,453.7c-1.2,0-2.2-0.4-3-1.1c-0.7-0.7-1.1-1.7-1.1-3.1v-0.5c0-0.9,0.2-1.6,0.5-2.2
	c0.3-0.6,0.8-1.1,1.4-1.4c0.6-0.3,1.3-0.5,2.1-0.5h0.1c0.8,0,1.5,0.2,2,0.6c0.5,0.4,0.9,0.9,1.2,1.5l-1.8,0.8
	c-0.1-0.3-0.3-0.5-0.5-0.7c-0.2-0.2-0.5-0.3-0.9-0.3h-0.1c-0.5,0-1,0.2-1.3,0.5s-0.5,0.9-0.5,1.6v0.6c0,0.8,0.2,1.3,0.5,1.6
	s0.8,0.5,1.3,0.5h0.1c0.4,0,0.7-0.1,0.9-0.2c0.2-0.2,0.4-0.4,0.6-0.7l1.7,0.9c-0.2,0.5-0.6,1-1.2,1.4c-0.6,0.4-1.2,0.5-2,0.5H445.2z
	"/>
<path class="st1" d="M449.9,453.5v-8.3h2v1.4c0.2-0.5,0.5-0.8,0.8-1.1s0.8-0.4,1.4-0.4h0.9v2.1h-0.8c-0.3,0-0.6,0.1-0.9,0.2
	c-0.3,0.1-0.6,0.3-0.8,0.7c-0.2,0.3-0.3,0.8-0.3,1.3v4.1H449.9z"/>
<path class="st1" d="M459.7,453.7c-0.8,0-1.5-0.2-2.1-0.5c-0.6-0.3-1.1-0.8-1.4-1.4c-0.4-0.6-0.5-1.4-0.5-2.2v-0.5
	c0-0.9,0.2-1.6,0.5-2.2c0.4-0.6,0.8-1.1,1.4-1.4c0.6-0.3,1.3-0.5,2.1-0.5h0.1c0.8,0,1.5,0.2,2.1,0.5s1.1,0.8,1.4,1.4
	c0.4,0.6,0.5,1.4,0.5,2.2v0.5c0,0.9-0.2,1.6-0.5,2.2s-0.8,1.1-1.4,1.4c-0.6,0.3-1.3,0.5-2.1,0.5H459.7z M459.7,451.8h0.1
	c0.5,0,1-0.2,1.3-0.5s0.5-0.9,0.5-1.6v-0.6c0-0.7-0.2-1.3-0.5-1.6s-0.8-0.5-1.3-0.5h-0.1c-0.5,0-1,0.2-1.3,0.5s-0.5,0.9-0.5,1.6v0.6
	c0,0.7,0.2,1.3,0.5,1.6S459.2,451.8,459.7,451.8z"/>
<path class="st1" d="M468.6,453.7c-1.9,0-3.1-0.6-3.6-1.9l1.7-0.9c0.1,0.3,0.4,0.6,0.7,0.7c0.3,0.2,0.7,0.2,1.2,0.2h0.2
	c0.9,0,1.4-0.2,1.4-0.7v-0.1c0-0.4-0.3-0.6-0.8-0.7l-1.7-0.2c-0.8-0.1-1.4-0.4-1.9-0.8c-0.4-0.4-0.6-1-0.6-1.7v-0.2
	c0-0.8,0.3-1.4,0.9-1.9c0.6-0.5,1.4-0.7,2.4-0.7h0.2c0.8,0,1.5,0.2,2.1,0.5c0.6,0.3,1,0.8,1.2,1.4l-1.8,0.8
	c-0.3-0.6-0.8-0.8-1.6-0.8h-0.2c-0.8,0-1.2,0.2-1.2,0.7v0.1c0,0.2,0.1,0.3,0.2,0.4c0.1,0.1,0.3,0.2,0.6,0.2l1.7,0.2
	c0.8,0.1,1.4,0.4,1.8,0.8c0.4,0.5,0.6,1,0.6,1.7v0.2c0,0.8-0.3,1.5-0.9,1.9c-0.6,0.4-1.5,0.6-2.6,0.6H468.6z"/>
<path class="st1" d="M477.4,453.7c-0.8,0-1.5-0.2-2.1-0.5c-0.6-0.3-1.1-0.8-1.4-1.4c-0.4-0.6-0.5-1.4-0.5-2.2v-0.5
	c0-0.9,0.2-1.6,0.5-2.2c0.4-0.6,0.8-1.1,1.4-1.4c0.6-0.3,1.3-0.5,2.1-0.5h0.1c0.8,0,1.5,0.2,2.1,0.5s1.1,0.8,1.4,1.4
	c0.4,0.6,0.5,1.4,0.5,2.2v0.5c0,0.9-0.2,1.6-0.5,2.2s-0.8,1.1-1.4,1.4c-0.6,0.3-1.3,0.5-2.1,0.5H477.4z M477.4,451.8h0.1
	c0.5,0,1-0.2,1.3-0.5s0.5-0.9,0.5-1.6v-0.6c0-0.7-0.2-1.3-0.5-1.6s-0.8-0.5-1.3-0.5h-0.1c-0.5,0-1,0.2-1.3,0.5s-0.5,0.9-0.5,1.6v0.6
	c0,0.7,0.2,1.3,0.5,1.6S476.9,451.8,477.4,451.8z"/>
<path class="st1" d="M484,453.5v-6.4h-1.6v-1.9h1.6v-0.4c0-1,0.3-1.8,0.8-2.4c0.5-0.5,1.4-0.8,2.6-0.8h1.4v1.9h-1.3
	c-0.4,0-0.7,0.1-0.9,0.3c-0.2,0.2-0.3,0.5-0.3,0.9v0.4h2.5l-0.3,1.9h-2.2v6.4H484z"/>
<path class="st1" d="M494.3,453.6c-1.1,0-1.9-0.2-2.4-0.7s-0.7-1.2-0.7-2.2v-3.6h-1.7v-1.9h1.7v-2.4h2.2v2.4h2.5l-0.3,1.9h-2.3v3.5
	c0,0.4,0.1,0.7,0.3,0.9c0.2,0.2,0.5,0.3,0.8,0.3h1.4v1.9H494.3z"/>
<path class="st1" d="M501.8,453.5v-11.2h7.4v2h-5.1v2.9h4.1l-0.3,2h-3.8v4.4H501.8z"/>
<path class="st1" d="M510.5,453.5v-11.7h2.2v11.7H510.5z"/>
<path class="st1" d="M514.7,444v-2.2h2.3v2.2H514.7z M514.8,453.5v-8.3h2.2v8.3H514.8z"/>
<path class="st1" d="M522.5,456.9c-0.8,0-1.5-0.1-2-0.4s-1-0.6-1.3-1.2l1.6-1.2c0.2,0.3,0.5,0.5,0.7,0.7c0.3,0.1,0.6,0.2,1.1,0.2
	h0.2c1.2,0,1.8-0.7,1.8-2.1v-0.5c-0.6,0.7-1.3,1-2.3,1h-0.1c-0.7,0-1.3-0.2-1.8-0.5c-0.5-0.3-0.9-0.8-1.2-1.4
	c-0.3-0.6-0.4-1.3-0.4-2.1V449c0-0.8,0.1-1.5,0.4-2.1c0.3-0.6,0.7-1.1,1.2-1.4c0.5-0.3,1.1-0.5,1.8-0.5h0.1c1.2,0,2,0.4,2.6,1.2v-1
	h2v7.6c0,1.3-0.3,2.3-1,3s-1.7,1-2.9,1H522.5z M522.7,451.5h0.1c0.5,0,0.9-0.2,1.3-0.6c0.3-0.4,0.5-0.9,0.5-1.5V449
	c0-0.6-0.2-1.1-0.5-1.5c-0.3-0.4-0.7-0.6-1.3-0.6h-0.1c-0.6,0-1,0.2-1.3,0.6s-0.5,0.9-0.5,1.5v0.4c0,0.7,0.2,1.2,0.5,1.5
	S522.1,451.5,522.7,451.5z"/>
<path class="st1" d="M528.9,453.5v-11.7h2.2v4.2c0.6-0.7,1.3-1,2.2-1h0.2c0.9,0,1.7,0.3,2.2,0.9c0.5,0.6,0.8,1.4,0.8,2.5v5.1h-2.2
	v-4.8c0-0.6-0.1-1-0.3-1.3c-0.2-0.3-0.6-0.5-1.1-0.5h-0.1c-0.3,0-0.5,0.1-0.8,0.2s-0.5,0.4-0.6,0.6s-0.2,0.7-0.2,1.1v4.6H528.9z"/>
<path class="st1" d="M542.5,453.6c-1.1,0-1.9-0.2-2.4-0.7s-0.7-1.2-0.7-2.2v-3.6h-1.7v-1.9h1.7v-2.4h2.2v2.4h2.5l-0.3,1.9h-2.3v3.5
	c0,0.4,0.1,0.7,0.3,0.9c0.2,0.2,0.5,0.3,0.8,0.3h1.4v1.9H542.5z"/>
<path class="st1" d="M450.7,472.9c-2.3,0-3.8-0.8-4.5-2.5l2-1c0.4,1,1.2,1.5,2.5,1.5h0.2c1.4,0,2-0.4,2-1.3v-0.2
	c0-0.3-0.1-0.6-0.4-0.9c-0.2-0.2-0.6-0.4-1-0.4l-1.7-0.2c-1.1-0.1-1.9-0.5-2.4-1c-0.6-0.5-0.8-1.3-0.8-2.2v-0.2
	c0-0.7,0.2-1.2,0.5-1.7c0.3-0.5,0.8-0.9,1.4-1.1c0.6-0.3,1.4-0.4,2.2-0.4h0.2c1,0,1.9,0.2,2.6,0.6c0.7,0.4,1.2,1,1.5,1.8l-2,0.9
	c-0.3-0.8-1-1.3-2.1-1.3h-0.2c-0.6,0-1,0.1-1.4,0.3s-0.5,0.5-0.5,0.9v0.2c0,0.7,0.4,1,1.3,1.2l1.7,0.2c1.1,0.1,1.9,0.5,2.5,1.1
	c0.5,0.6,0.8,1.3,0.8,2.3v0.2c0,1.1-0.4,1.9-1.1,2.5c-0.7,0.6-1.8,0.9-3.2,0.9H450.7z"/>
<path class="st1" d="M456.7,463.2V461h2.3v2.2H456.7z M456.7,472.7v-8.3h2.2v8.3H456.7z"/>
<path class="st1" d="M461.1,472.7v-8.3h2v1c0.3-0.4,0.6-0.7,1-0.9c0.4-0.2,0.9-0.3,1.4-0.3h0.2c1.2,0,2,0.4,2.5,1.3
	c0.3-0.4,0.6-0.8,1.1-1c0.4-0.2,0.9-0.4,1.5-0.4h0.2c0.9,0,1.6,0.3,2.1,0.9c0.5,0.6,0.8,1.4,0.8,2.5v5.1h-2.2v-4.8
	c0-0.6-0.1-1-0.3-1.3c-0.2-0.3-0.5-0.5-1-0.5H470c-0.4,0-0.7,0.2-1,0.5c-0.3,0.3-0.5,0.8-0.5,1.5v4.6h-2.2v-4.8c0-0.6-0.1-1-0.3-1.3
	c-0.2-0.3-0.5-0.5-1-0.5h-0.1c-0.4,0-0.7,0.2-1,0.5c-0.3,0.3-0.5,0.8-0.5,1.5v4.6H461.1z"/>
<path class="st1" d="M478.5,472.9c-0.9,0-1.6-0.3-2.2-0.9c-0.5-0.6-0.8-1.4-0.8-2.5v-5.1h2.2v4.8c0,0.6,0.1,1,0.3,1.3
	c0.2,0.3,0.5,0.5,1,0.5h0.1c0.3,0,0.5-0.1,0.7-0.2c0.2-0.1,0.4-0.4,0.6-0.6c0.2-0.3,0.2-0.7,0.2-1.1v-4.6h2.2v8.3h-2v-1
	c-0.3,0.4-0.6,0.7-1,0.9s-0.9,0.3-1.4,0.3H478.5z"/>
<path class="st1" d="M485.1,472.7V461h2.2v11.7H485.1z"/>
<path class="st1" d="M491.8,472.9c-0.9,0-1.6-0.2-2.1-0.7c-0.5-0.4-0.7-1.1-0.7-1.8c0-0.7,0.2-1.3,0.7-1.7c0.4-0.4,1.1-0.7,1.9-0.8
	l2.6-0.3v-0.1c0-1-0.4-1.5-1.3-1.5h-0.2c-0.4,0-0.7,0.1-1,0.2c-0.3,0.1-0.5,0.4-0.7,0.8l-1.7-0.9c0.2-0.6,0.7-1,1.2-1.4
	c0.6-0.3,1.3-0.5,2.1-0.5h0.2c2.3,0,3.5,1.1,3.5,3.3v5.2h-2v-1c-0.3,0.4-0.6,0.7-1.1,0.9C493,472.8,492.5,472.9,491.8,472.9
	L491.8,472.9z M494.2,469l-1.7,0.2c-0.5,0.1-0.8,0.2-1,0.3c-0.2,0.1-0.3,0.3-0.3,0.6c0,0.3,0.1,0.5,0.3,0.7s0.5,0.2,0.9,0.2h0.1
	c0.5,0,0.9-0.2,1.2-0.5c0.3-0.3,0.4-0.7,0.4-1.3V469z"/>
<path class="st1" d="M502.2,472.8c-1.1,0-1.9-0.2-2.4-0.7c-0.5-0.5-0.7-1.2-0.7-2.2v-3.6h-1.7v-1.9h1.7v-2.4h2.2v2.4h2.5l-0.3,1.9
	h-2.3v3.5c0,0.4,0.1,0.7,0.3,0.9c0.2,0.2,0.5,0.3,0.8,0.3h1.4v1.9H502.2z"/>
<path class="st1" d="M509,472.9c-0.8,0-1.5-0.2-2.1-0.5c-0.6-0.3-1.1-0.8-1.4-1.4c-0.4-0.6-0.5-1.4-0.5-2.2v-0.5
	c0-0.9,0.2-1.6,0.5-2.2c0.4-0.6,0.8-1.1,1.4-1.4c0.6-0.3,1.3-0.5,2.1-0.5h0.1c0.8,0,1.5,0.2,2.1,0.5s1.1,0.8,1.4,1.4
	c0.4,0.6,0.5,1.4,0.5,2.2v0.5c0,0.9-0.2,1.6-0.5,2.2s-0.8,1.1-1.4,1.4s-1.3,0.5-2.1,0.5H509z M509,471h0.1c0.5,0,1-0.2,1.3-0.5
	s0.5-0.9,0.5-1.6v-0.6c0-0.7-0.2-1.3-0.5-1.6s-0.8-0.5-1.3-0.5H509c-0.5,0-1,0.2-1.3,0.5s-0.5,0.9-0.5,1.6v0.6
	c0,0.7,0.2,1.3,0.5,1.6S508.5,471,509,471z"/>
<path class="st1" d="M514.8,472.7v-8.3h2v1.4c0.2-0.5,0.5-0.9,0.8-1.1s0.8-0.4,1.4-0.4h0.9v2.1H519c-0.3,0-0.6,0.1-0.9,0.2
	c-0.3,0.1-0.6,0.3-0.8,0.7s-0.3,0.7-0.3,1.3v4.1H514.8z"/>
<rect id="rectangle-10-5-5" x="844.3" y="267.6" class="st2" width="50" height="159.3"/>
<rect id="rectangle-10-6-6" x="784.1" y="71.6" class="st3" width="50" height="355.3"/>
<path class="st3" d="M801.1,514.5v-11.2h4.5c1.1,0,2.1,0.2,2.9,0.7s1.4,1.1,1.8,1.8c0.4,0.8,0.6,1.7,0.6,2.8v0.6
	c0,1.6-0.4,2.9-1.3,3.9c-0.9,0.9-2.2,1.4-3.9,1.4H801.1z M803.5,512.5h2.1c0.9,0,1.7-0.3,2.2-0.8c0.5-0.5,0.8-1.3,0.8-2.4v-0.7
	c0-1.1-0.3-1.9-0.8-2.4c-0.5-0.5-1.2-0.8-2.2-0.8h-2.1V512.5z"/>
<path class="st3" d="M813,514.5v-11.2h2.3v9.2h4.9v2H813z"/>
<path class="st3" d="M825.8,514.7c-2.3,0-3.8-0.8-4.5-2.5l2-1c0.4,1,1.2,1.5,2.5,1.5h0.2c1.4,0,2-0.4,2-1.3v-0.2
	c0-0.3-0.1-0.6-0.4-0.9c-0.2-0.2-0.6-0.4-1-0.4l-1.7-0.2c-1.1-0.1-1.9-0.5-2.4-1c-0.6-0.5-0.8-1.3-0.8-2.2v-0.2
	c0-0.7,0.2-1.2,0.5-1.7c0.3-0.5,0.8-0.9,1.4-1.1c0.6-0.3,1.4-0.4,2.2-0.4h0.2c1,0,1.9,0.2,2.6,0.6s1.2,1,1.5,1.8l-2,0.9
	c-0.3-0.8-1-1.3-2.1-1.3h-0.2c-0.6,0-1,0.1-1.4,0.3s-0.5,0.5-0.5,0.9v0.2c0,0.7,0.4,1,1.3,1.2l1.7,0.2c1.1,0.1,1.9,0.5,2.5,1.1
	c0.5,0.6,0.8,1.3,0.8,2.3v0.2c0,1.1-0.4,1.9-1.1,2.5c-0.7,0.6-1.8,0.9-3.2,0.9H825.8z"/>
<path class="st3" d="M836,514.7c-2.3,0-3.8-0.8-4.5-2.5l2-1c0.4,1,1.2,1.5,2.5,1.5h0.2c1.4,0,2-0.4,2-1.3v-0.2
	c0-0.3-0.1-0.6-0.4-0.9c-0.2-0.2-0.6-0.4-1-0.4l-1.7-0.2c-1.1-0.1-1.9-0.5-2.4-1c-0.6-0.5-0.8-1.3-0.8-2.2v-0.2
	c0-0.7,0.2-1.2,0.5-1.7c0.3-0.5,0.8-0.9,1.4-1.1c0.6-0.3,1.4-0.4,2.2-0.4h0.2c1,0,1.9,0.2,2.6,0.6s1.2,1,1.5,1.8l-2,0.9
	c-0.3-0.8-1-1.3-2.1-1.3H836c-0.6,0-1,0.1-1.4,0.3s-0.5,0.5-0.5,0.9v0.2c0,0.7,0.4,1,1.3,1.2l1.7,0.2c1.1,0.1,1.9,0.5,2.5,1.1
	c0.5,0.6,0.8,1.3,0.8,2.3v0.2c0,1.1-0.4,1.9-1.1,2.5c-0.7,0.6-1.8,0.9-3.2,0.9H836z"/>
<path class="st3" d="M846.1,510v-1.9h2.6v-2.7h2.1v2.7h2.6v1.9h-2.6v2.7h-2.1V510H846.1z"/>
<path class="st3" d="M859.9,514.5v-11.2h4.2c1.3,0,2.3,0.3,3.1,0.9c0.8,0.6,1.1,1.5,1.1,2.5v0.3c0,0.8-0.2,1.4-0.6,1.9
	c-0.4,0.5-0.9,0.9-1.5,1.2l2.4,4.4h-2.5l-2.2-4h-1.7v4H859.9z M862.3,508.5h1.8c0.6,0,1-0.1,1.4-0.3c0.4-0.2,0.6-0.6,0.6-1.1v-0.4
	c0-0.5-0.2-0.8-0.6-1c-0.4-0.2-0.8-0.3-1.4-0.3h-1.8V508.5z"/>
<path class="st3" d="M872.6,514.5v-9.2h-3.4v-2h9.1v2H875v9.2H872.6z"/>
<path class="st1" d="M762.5,442.3h2.5l2.1,7.8l2-7.8h2.1l2,7.8l2.1-7.8h2.4l-3.4,11.2h-2.2l-2-7.5l-2,7.5h-2.2L762.5,442.3z"/>
<path class="st1" d="M780.5,453.7c-0.9,0-1.6-0.2-2.1-0.7c-0.5-0.4-0.7-1-0.7-1.8c0-0.7,0.2-1.3,0.7-1.7c0.4-0.4,1.1-0.7,1.9-0.8
	l2.6-0.3v-0.1c0-1-0.4-1.5-1.3-1.5h-0.2c-0.4,0-0.7,0.1-1,0.2c-0.3,0.1-0.5,0.4-0.7,0.8l-1.7-0.9c0.2-0.6,0.7-1,1.2-1.4
	c0.6-0.3,1.3-0.5,2.1-0.5h0.2c2.3,0,3.5,1.1,3.5,3.3v5.2h-2v-1c-0.3,0.4-0.6,0.7-1.1,0.9C781.7,453.6,781.2,453.7,780.5,453.7
	L780.5,453.7z M782.9,449.8l-1.7,0.2c-0.5,0.1-0.8,0.2-1,0.3c-0.2,0.1-0.3,0.3-0.3,0.6c0,0.3,0.1,0.5,0.3,0.7
	c0.2,0.2,0.5,0.2,0.9,0.2h0.1c0.5,0,0.9-0.2,1.2-0.5c0.3-0.3,0.4-0.7,0.4-1.3V449.8z"/>
<path class="st1" d="M787.2,453.5v-8.3h2v1.4c0.2-0.5,0.5-0.8,0.8-1.1c0.3-0.3,0.8-0.4,1.4-0.4h0.9v2.1h-0.8c-0.3,0-0.6,0.1-0.9,0.2
	c-0.3,0.1-0.6,0.3-0.8,0.7c-0.2,0.3-0.3,0.8-0.3,1.3v4.1H787.2z"/>
<path class="st1" d="M793.7,453.5v-11.7h2.2v4.2c0.6-0.7,1.3-1,2.2-1h0.2c0.9,0,1.7,0.3,2.2,0.9c0.5,0.6,0.8,1.4,0.8,2.5v5.1h-2.2
	v-4.8c0-0.6-0.1-1-0.3-1.3c-0.2-0.3-0.6-0.5-1.1-0.5h-0.1c-0.3,0-0.5,0.1-0.8,0.2c-0.2,0.1-0.5,0.4-0.6,0.6
	c-0.2,0.3-0.2,0.7-0.2,1.1v4.6H793.7z"/>
<path class="st1" d="M805.8,453.7c-0.9,0-1.6-0.2-2.1-0.7c-0.5-0.4-0.7-1-0.7-1.8c0-0.7,0.2-1.3,0.7-1.7c0.4-0.4,1.1-0.7,1.9-0.8
	l2.6-0.3v-0.1c0-1-0.4-1.5-1.3-1.5h-0.2c-0.4,0-0.7,0.1-1,0.2c-0.3,0.1-0.5,0.4-0.7,0.8l-1.7-0.9c0.2-0.6,0.7-1,1.2-1.4
	c0.6-0.3,1.3-0.5,2.1-0.5h0.2c2.3,0,3.5,1.1,3.5,3.3v5.2h-2v-1c-0.3,0.4-0.6,0.7-1.1,0.9C806.9,453.6,806.4,453.7,805.8,453.7
	L805.8,453.7z M808.2,449.8l-1.7,0.2c-0.5,0.1-0.8,0.2-1,0.3c-0.2,0.1-0.3,0.3-0.3,0.6c0,0.3,0.1,0.5,0.3,0.7
	c0.2,0.2,0.5,0.2,0.9,0.2h0.1c0.5,0,0.9-0.2,1.2-0.5c0.3-0.3,0.4-0.7,0.4-1.3V449.8z"/>
<path class="st1" d="M812.4,453.5v-8.3h2v1c0.3-0.4,0.6-0.7,1-0.9c0.4-0.2,0.9-0.3,1.4-0.3h0.2c1.2,0,2,0.4,2.5,1.3
	c0.3-0.4,0.6-0.8,1.1-1c0.4-0.2,0.9-0.4,1.5-0.4h0.2c0.9,0,1.6,0.3,2.1,0.9c0.5,0.6,0.8,1.4,0.8,2.5v5.1h-2.2v-4.8
	c0-0.6-0.1-1-0.3-1.3c-0.2-0.3-0.5-0.5-1-0.5h-0.1c-0.4,0-0.7,0.2-1,0.5c-0.3,0.3-0.5,0.8-0.5,1.5v4.6h-2.2v-4.8
	c0-0.6-0.1-1-0.3-1.3c-0.2-0.3-0.5-0.5-1-0.5h-0.1c-0.4,0-0.7,0.2-1,0.5s-0.5,0.8-0.5,1.5v4.6H812.4z"/>
<path class="st1" d="M827,453.5v-8.3h2v1c0.3-0.4,0.6-0.7,1-0.9c0.4-0.2,0.9-0.3,1.4-0.3h0.2c1.2,0,2,0.4,2.5,1.3
	c0.3-0.4,0.6-0.8,1.1-1c0.4-0.2,0.9-0.4,1.5-0.4h0.2c0.9,0,1.6,0.3,2.1,0.9c0.5,0.6,0.8,1.4,0.8,2.5v5.1h-2.2v-4.8
	c0-0.6-0.1-1-0.3-1.3c-0.2-0.3-0.5-0.5-1-0.5h-0.1c-0.4,0-0.7,0.2-1,0.5c-0.3,0.3-0.5,0.8-0.5,1.5v4.6h-2.2v-4.8
	c0-0.6-0.1-1-0.3-1.3c-0.2-0.3-0.5-0.5-1-0.5h-0.1c-0.4,0-0.7,0.2-1,0.5s-0.5,0.8-0.5,1.5v4.6H827z"/>
<path class="st1" d="M845.1,453.7c-1.3,0-2.2-0.4-2.9-1.1c-0.7-0.7-1-1.7-1-3v-0.5c0-1.3,0.4-2.3,1.1-3c0.7-0.7,1.7-1.1,2.9-1.1h0.1
	c1.2,0,2.1,0.4,2.7,1.1c0.7,0.7,1,1.7,1,2.9v1h-5.6c0.1,1.3,0.7,1.9,1.8,1.9h0.2c0.8,0,1.4-0.3,1.8-0.8l1.6,1.1
	c-0.3,0.5-0.7,0.9-1.3,1.2c-0.6,0.3-1.3,0.4-2,0.4H845.1z M843.4,448.5h3.4v0c0-1.1-0.5-1.7-1.6-1.7h-0.1
	C844.1,446.8,843.5,447.4,843.4,448.5z"/>
<path class="st1" d="M850.6,453.5v-8.3h2v1.4c0.2-0.5,0.5-0.8,0.8-1.1c0.3-0.3,0.8-0.4,1.4-0.4h0.9v2.1h-0.8c-0.3,0-0.6,0.1-0.9,0.2
	c-0.3,0.1-0.6,0.3-0.8,0.7c-0.2,0.3-0.3,0.8-0.3,1.3v4.1H850.6z"/>
<path class="st1" d="M865.8,453.5v-2h-5.3v-1.7l5.3-7.2h2.1v7.1h1.4l-0.3,1.9h-1.2v2H865.8z M865.8,449.6v-4.2l-3.1,4.2H865.8z"/>
<path class="st1" d="M874.4,453.7c-1.4,0-2.5-0.4-3.3-1.3c-0.7-0.9-1.1-2.1-1.1-3.8v-1.2c0-1.7,0.4-2.9,1.1-3.8
	c0.7-0.9,1.8-1.3,3.3-1.3h0.1c1.4,0,2.5,0.4,3.3,1.3c0.7,0.9,1.1,2.1,1.1,3.8v1.2c0,1.6-0.4,2.9-1.1,3.8c-0.7,0.9-1.8,1.3-3.3,1.3
	H874.4z M874.4,451.7h0.1c1.4,0,2.1-1,2.1-3.1v-1.1c0-2.1-0.7-3.1-2.1-3.1h-0.1c-1.4,0-2.1,1-2.1,3.1v1.1
	C872.3,450.6,873,451.7,874.4,451.7z"/>
<path class="st1" d="M880.6,456.4l-0.7-1l0.6-0.4c0.3-0.2,0.4-0.4,0.6-0.5s0.2-0.5,0.2-0.9v-0.1h-1.1V451h2.4v2.6
	c0,0.4-0.1,0.8-0.2,1.1c-0.1,0.3-0.3,0.5-0.5,0.7c-0.2,0.2-0.5,0.4-0.8,0.6L880.6,456.4z"/>
<path class="st1" d="M888.1,453.7c-1.4,0-2.5-0.4-3.3-1.3c-0.7-0.9-1.1-2.1-1.1-3.8v-1.2c0-1.7,0.4-2.9,1.1-3.8
	c0.7-0.9,1.8-1.3,3.3-1.3h0.1c1.4,0,2.5,0.4,3.3,1.3c0.7,0.9,1.1,2.1,1.1,3.8v1.2c0,1.6-0.4,2.9-1.1,3.8c-0.7,0.9-1.8,1.3-3.3,1.3
	H888.1z M888.1,451.7h0.1c1.4,0,2.1-1,2.1-3.1v-1.1c0-2.1-0.7-3.1-2.1-3.1h-0.1c-1.4,0-2.1,1-2.1,3.1v1.1
	C886,450.6,886.7,451.7,888.1,451.7z"/>
<path class="st1" d="M897.7,453.7c-1.4,0-2.5-0.4-3.3-1.3c-0.7-0.9-1.1-2.1-1.1-3.8v-1.2c0-1.7,0.4-2.9,1.1-3.8
	c0.7-0.9,1.8-1.3,3.3-1.3h0.1c1.4,0,2.5,0.4,3.3,1.3c0.7,0.9,1.1,2.1,1.1,3.8v1.2c0,1.6-0.4,2.9-1.1,3.8c-0.7,0.9-1.8,1.3-3.3,1.3
	H897.7z M897.7,451.7h0.1c1.4,0,2.1-1,2.1-3.1v-1.1c0-2.1-0.7-3.1-2.1-3.1h-0.1c-1.4,0-2.1,1-2.1,3.1v1.1
	C895.6,450.6,896.3,451.7,897.7,451.7z"/>
<path class="st1" d="M907.3,453.7c-1.4,0-2.5-0.4-3.3-1.3c-0.7-0.9-1.1-2.1-1.1-3.8v-1.2c0-1.7,0.4-2.9,1.1-3.8
	c0.7-0.9,1.8-1.3,3.3-1.3h0.1c1.4,0,2.5,0.4,3.3,1.3c0.7,0.9,1.1,2.1,1.1,3.8v1.2c0,1.6-0.4,2.9-1.1,3.8c-0.7,0.9-1.8,1.3-3.3,1.3
	H907.3z M907.3,451.7h0.1c1.4,0,2.1-1,2.1-3.1v-1.1c0-2.1-0.7-3.1-2.1-3.1h-0.1c-1.4,0-2.1,1-2.1,3.1v1.1
	C905.2,450.6,905.9,451.7,907.3,451.7z"/>
<path class="st1" d="M913,447.5v-2.4h2.4v2.4H913z M913,453.5V451h2.4v2.4H913z"/>
<path class="st1" d="M807.1,472.7v-11.2h4.5c1.1,0,2.1,0.2,2.9,0.7s1.4,1.1,1.8,1.8c0.4,0.8,0.6,1.7,0.6,2.8v0.6
	c0,1.6-0.4,2.9-1.3,3.9c-0.9,0.9-2.2,1.4-3.9,1.4H807.1z M809.5,470.7h2.1c0.9,0,1.7-0.3,2.2-0.8c0.5-0.5,0.8-1.3,0.8-2.4v-0.7
	c0-1.1-0.3-1.9-0.8-2.4s-1.2-0.8-2.2-0.8h-2.1V470.7z"/>
<path class="st1" d="M820.9,472.9c-0.9,0-1.6-0.2-2.1-0.7c-0.5-0.4-0.7-1.1-0.7-1.8c0-0.7,0.2-1.3,0.7-1.7s1.1-0.7,1.9-0.8l2.6-0.3
	v-0.1c0-1-0.4-1.5-1.3-1.5h-0.2c-0.4,0-0.7,0.1-1,0.2c-0.3,0.1-0.5,0.4-0.7,0.8l-1.7-0.9c0.2-0.6,0.7-1,1.2-1.4
	c0.6-0.3,1.3-0.5,2.1-0.5h0.2c2.3,0,3.5,1.1,3.5,3.3v5.2h-2v-1c-0.3,0.4-0.6,0.7-1.1,0.9C822.1,472.8,821.5,472.9,820.9,472.9
	L820.9,472.9z M823.3,469l-1.7,0.2c-0.5,0.1-0.8,0.2-1,0.3c-0.2,0.1-0.3,0.3-0.3,0.6c0,0.3,0.1,0.5,0.3,0.7s0.5,0.2,0.9,0.2h0.1
	c0.5,0,0.9-0.2,1.2-0.5c0.3-0.3,0.4-0.7,0.4-1.3V469z"/>
<path class="st1" d="M827.5,472.7v-8.3h2v1.4c0.2-0.5,0.5-0.9,0.8-1.1c0.3-0.3,0.8-0.4,1.4-0.4h0.9v2.1h-0.8c-0.3,0-0.6,0.1-0.9,0.2
	c-0.3,0.1-0.6,0.3-0.8,0.7s-0.3,0.7-0.3,1.3v4.1H827.5z"/>
<path class="st1" d="M834.1,472.7V461h2.2v6.4l3-2.9h2.8l-3.3,3.1l3.5,5.1h-2.7l-2.4-3.7l-0.9,0.8v2.9H834.1z"/>
<path class="st1" d="M847.4,472.8c-1.1,0-1.9-0.2-2.4-0.7c-0.5-0.5-0.7-1.2-0.7-2.2v-3.6h-1.7v-1.9h1.7v-2.4h2.2v2.4h2.5l-0.3,1.9
	h-2.3v3.5c0,0.4,0.1,0.7,0.3,0.9c0.2,0.2,0.5,0.3,0.8,0.3h1.4v1.9H847.4z"/>
<path class="st1" d="M850.6,463.2V461h2.3v2.2H850.6z M850.6,472.7v-8.3h2.2v8.3H850.6z"/>
<path class="st1" d="M857.9,472.9c-0.7,0-1.3-0.2-1.8-0.5s-0.9-0.8-1.2-1.4c-0.3-0.6-0.4-1.4-0.4-2.3v-0.5c0-0.9,0.1-1.6,0.4-2.2
	c0.3-0.6,0.7-1.1,1.2-1.4s1.1-0.5,1.8-0.5h0.1c1,0,1.8,0.3,2.3,1V461h2.2v11.7h-2v-1c-0.6,0.8-1.4,1.2-2.6,1.2H857.9z M858.5,471
	h0.1c0.3,0,0.6-0.1,0.8-0.2s0.5-0.4,0.7-0.7c0.2-0.3,0.3-0.7,0.3-1.3v-0.5c0-0.5-0.1-0.9-0.3-1.3c-0.2-0.3-0.4-0.6-0.7-0.7
	c-0.3-0.1-0.5-0.2-0.8-0.2h-0.1c-0.5,0-0.9,0.2-1.3,0.5c-0.3,0.3-0.5,0.9-0.5,1.6v0.5c0,0.8,0.2,1.3,0.5,1.7
	C857.6,470.8,858,471,858.5,471z"/>
<path class="st1" d="M868.2,472.9c-1.3,0-2.2-0.4-2.9-1.1s-1-1.7-1-3v-0.5c0-1.3,0.4-2.3,1.1-3c0.7-0.7,1.7-1.1,2.9-1.1h0.1
	c1.2,0,2.1,0.4,2.7,1.1c0.7,0.7,1,1.7,1,2.9v1h-5.6c0.1,1.3,0.7,1.9,1.8,1.9h0.2c0.8,0,1.4-0.3,1.8-0.8l1.6,1.1
	c-0.3,0.5-0.7,0.9-1.3,1.2c-0.6,0.3-1.3,0.4-2,0.4H868.2z M866.5,467.7h3.4v0c0-1.1-0.5-1.7-1.6-1.7h-0.1
	C867.2,466,866.6,466.6,866.5,467.7z"/>
<rect id="rectangle-10-5-6" x="1023.8" y="267.6" class="st2" width="50" height="159.3"/>
<rect id="rectangle-10-6-7" x="963.6" y="138.6" class="st3" width="50" height="288.3"/>
<path class="st1" d="M990.5,453.5v-11.2h4.6c1.2,0,2.2,0.3,2.9,0.8c0.7,0.6,1.1,1.3,1.1,2.3v0.3c0,0.4-0.1,0.8-0.3,1.1
	s-0.5,0.6-0.9,0.8c0.6,0.2,1,0.5,1.3,0.9c0.3,0.4,0.4,0.9,0.4,1.5v0.3c0,1-0.3,1.8-1,2.3s-1.7,0.8-2.9,0.8H990.5z M992.8,446.8h2.2
	c1.1,0,1.7-0.4,1.7-1.2v-0.3c0-0.4-0.1-0.6-0.4-0.8s-0.7-0.3-1.3-0.3h-2.2V446.8z M992.8,451.5h2.6c1.1,0,1.7-0.4,1.7-1.2V450
	c0-0.4-0.1-0.7-0.4-0.9c-0.3-0.2-0.7-0.3-1.3-0.3h-2.6V451.5z"/>
<path class="st1" d="M1001,453.5v-11.7h2.2v11.7H1001z"/>
<path class="st1" d="M1008.9,453.7c-1.3,0-2.2-0.4-2.9-1.1c-0.7-0.7-1-1.7-1-3v-0.5c0-1.3,0.4-2.3,1.1-3c0.7-0.7,1.7-1.1,2.9-1.1
	h0.1c1.2,0,2.1,0.4,2.7,1.1c0.7,0.7,1,1.7,1,2.9v1h-5.6c0.1,1.3,0.7,1.9,1.8,1.9h0.2c0.8,0,1.4-0.3,1.8-0.8l1.6,1.1
	c-0.3,0.5-0.7,0.9-1.3,1.2c-0.6,0.3-1.3,0.4-2,0.4H1008.9z M1007.2,448.5h3.4v0c0-1.1-0.5-1.7-1.6-1.7h-0.1
	C1007.9,446.8,1007.3,447.4,1007.2,448.5z"/>
<path class="st1" d="M1014.3,453.5v-8.3h2v1c0.3-0.4,0.6-0.7,1.1-0.9c0.4-0.2,0.9-0.3,1.4-0.3h0.2c0.9,0,1.7,0.3,2.2,0.9
	c0.5,0.6,0.8,1.4,0.8,2.5v5.1h-2.2v-4.8c0-0.6-0.1-1-0.3-1.3c-0.2-0.3-0.6-0.5-1.1-0.5h-0.1c-0.3,0-0.5,0.1-0.8,0.2
	c-0.3,0.1-0.5,0.4-0.6,0.6c-0.2,0.3-0.2,0.7-0.2,1.1v4.6H1014.3z"/>
<path class="st1" d="M1027,453.7c-0.7,0-1.3-0.2-1.8-0.5c-0.5-0.3-0.9-0.8-1.2-1.4c-0.3-0.6-0.4-1.4-0.4-2.3v-0.5
	c0-0.9,0.1-1.6,0.4-2.2c0.3-0.6,0.7-1.1,1.2-1.4c0.5-0.3,1.1-0.5,1.8-0.5h0.1c1,0,1.8,0.3,2.3,1v-4.2h2.2v11.7h-2v-1
	c-0.6,0.8-1.4,1.2-2.6,1.2H1027z M1027.6,451.8h0.1c0.3,0,0.6-0.1,0.8-0.2c0.3-0.1,0.5-0.4,0.7-0.7c0.2-0.3,0.3-0.7,0.3-1.3v-0.5
	c0-0.5-0.1-0.9-0.3-1.3c-0.2-0.3-0.4-0.6-0.7-0.7c-0.3-0.1-0.5-0.2-0.8-0.2h-0.1c-0.5,0-0.9,0.2-1.3,0.5c-0.3,0.3-0.5,0.9-0.5,1.6
	v0.5c0,0.8,0.2,1.3,0.5,1.7C1026.7,451.6,1027.1,451.8,1027.6,451.8z"/>
<path class="st1" d="M1037.3,453.7c-1.3,0-2.2-0.4-2.9-1.1c-0.7-0.7-1-1.7-1-3v-0.5c0-1.3,0.4-2.3,1.1-3c0.7-0.7,1.7-1.1,2.9-1.1
	h0.1c1.2,0,2.1,0.4,2.7,1.1s1,1.7,1,2.9v1h-5.6c0.1,1.3,0.7,1.9,1.8,1.9h0.2c0.8,0,1.4-0.3,1.8-0.8l1.6,1.1
	c-0.3,0.5-0.7,0.9-1.3,1.2s-1.3,0.4-2,0.4H1037.3z M1035.6,448.5h3.4v0c0-1.1-0.5-1.7-1.6-1.7h-0.1
	C1036.3,446.8,1035.7,447.4,1035.6,448.5z"/>
<path class="st1" d="M1042.7,453.5v-8.3h2v1.4c0.2-0.5,0.5-0.8,0.8-1.1c0.3-0.3,0.8-0.4,1.4-0.4h0.9v2.1h-0.8
	c-0.3,0-0.6,0.1-0.9,0.2c-0.3,0.1-0.6,0.3-0.8,0.7c-0.2,0.3-0.3,0.8-0.3,1.3v4.1H1042.7z"/>
<path class="st1" d="M948.9,474.7c-1.4-2.1-2.1-4.4-2.1-6.8v-0.9c0-1.2,0.2-2.3,0.5-3.4c0.4-1.1,0.9-2.2,1.6-3.3h2.2
	c-0.7,1.1-1.1,2.2-1.5,3.3c-0.3,1.1-0.5,2.3-0.5,3.4v0.9c0,1.1,0.2,2.3,0.5,3.4c0.3,1.2,0.8,2.3,1.5,3.3H948.9z"/>
<path class="st1" d="M955.8,472.9c-2,0-3.3-0.7-3.9-2l1.9-0.8c0.3,0.6,0.9,0.9,1.9,0.9h0.1c0.6,0,1-0.1,1.4-0.4
	c0.3-0.3,0.5-0.6,0.5-1v-0.2c0-0.4-0.2-0.8-0.5-1c-0.3-0.2-0.8-0.4-1.4-0.4h-1.5V466h1.6c1,0,1.6-0.4,1.6-1.2v-0.2
	c0-0.4-0.1-0.7-0.4-0.9s-0.7-0.3-1.2-0.3h-0.1c-1,0-1.6,0.3-1.8,1l-1.9-0.9c0.6-1.4,1.8-2,3.9-2h0.2c0.7,0,1.3,0.1,1.9,0.4
	c0.5,0.3,1,0.6,1.3,1.1s0.5,1,0.5,1.6v0.2c0,0.4-0.1,0.8-0.3,1.2c-0.2,0.4-0.5,0.7-0.8,1c0.9,0.6,1.4,1.4,1.4,2.4v0.2
	c0,1.1-0.3,1.9-1,2.5c-0.7,0.6-1.7,0.9-2.9,0.9H955.8z"/>
<path class="st1" d="M962.2,472.7v-11.2h4.5c1.1,0,2.1,0.2,2.9,0.7s1.4,1.1,1.8,1.8c0.4,0.8,0.6,1.7,0.6,2.8v0.6
	c0,1.6-0.4,2.9-1.3,3.9c-0.9,0.9-2.2,1.4-3.9,1.4H962.2z M964.5,470.7h2.1c0.9,0,1.7-0.3,2.2-0.8c0.5-0.5,0.8-1.3,0.8-2.4v-0.7
	c0-1.1-0.3-1.9-0.8-2.4s-1.2-0.8-2.2-0.8h-2.1V470.7z"/>
<path class="st1" d="M982.6,472.9c-1.7,0-2.9-0.5-3.8-1.5c-0.9-1-1.3-2.3-1.3-4.1v-0.6c0-1.1,0.2-2.1,0.6-2.9c0.4-0.8,1-1.5,1.7-1.9
	c0.8-0.4,1.7-0.7,2.8-0.7h0.1c1.1,0,2.1,0.2,2.8,0.8c0.8,0.5,1.3,1.2,1.6,2.1l-2.2,0.8c-0.1-0.6-0.4-1-0.8-1.2
	c-0.4-0.3-0.9-0.4-1.4-0.4h-0.1c-0.9,0-1.6,0.3-2,0.8c-0.5,0.6-0.7,1.4-0.7,2.6v0.7c0,1.2,0.2,2.1,0.7,2.6c0.5,0.5,1.2,0.8,2.1,0.8
	h0.1c0.6,0,1.1-0.1,1.5-0.4s0.7-0.7,0.9-1.2l2.1,0.8c-0.3,0.9-0.9,1.6-1.6,2.1c-0.8,0.5-1.7,0.7-2.9,0.7H982.6z"/>
<path class="st1" d="M988.8,472.7v-8.3h2v1.4c0.2-0.5,0.5-0.9,0.8-1.1c0.3-0.3,0.8-0.4,1.4-0.4h0.9v2.1H993c-0.3,0-0.6,0.1-0.9,0.2
	c-0.3,0.1-0.6,0.3-0.8,0.7s-0.3,0.7-0.3,1.3v4.1H988.8z"/>
<path class="st1" d="M998.6,472.9c-1.3,0-2.2-0.4-2.9-1.1s-1-1.7-1-3v-0.5c0-1.3,0.4-2.3,1.1-3c0.7-0.7,1.7-1.1,2.9-1.1h0.1
	c1.2,0,2.1,0.4,2.7,1.1c0.7,0.7,1,1.7,1,2.9v1h-5.6c0.1,1.3,0.7,1.9,1.8,1.9h0.2c0.8,0,1.4-0.3,1.8-0.8l1.6,1.1
	c-0.3,0.5-0.7,0.9-1.3,1.2c-0.6,0.3-1.3,0.4-2,0.4H998.6z M996.8,467.7h3.4v0c0-1.1-0.5-1.7-1.6-1.7h-0.1
	C997.5,466,996.9,466.6,996.8,467.7z"/>
<path class="st1" d="M1006.4,472.9c-0.9,0-1.6-0.2-2.1-0.7c-0.5-0.4-0.7-1.1-0.7-1.8c0-0.7,0.2-1.3,0.7-1.7s1.1-0.7,1.9-0.8l2.6-0.3
	v-0.1c0-1-0.4-1.5-1.3-1.5h-0.2c-0.4,0-0.7,0.1-1,0.2c-0.3,0.1-0.5,0.4-0.7,0.8l-1.7-0.9c0.2-0.6,0.7-1,1.2-1.4
	c0.6-0.3,1.3-0.5,2.1-0.5h0.2c2.3,0,3.5,1.1,3.5,3.3v5.2h-2v-1c-0.3,0.4-0.6,0.7-1.1,0.9C1007.5,472.8,1007,472.9,1006.4,472.9
	L1006.4,472.9z M1008.8,469l-1.7,0.2c-0.5,0.1-0.8,0.2-1,0.3c-0.2,0.1-0.3,0.3-0.3,0.6c0,0.3,0.1,0.5,0.3,0.7s0.5,0.2,0.9,0.2h0.1
	c0.5,0,0.9-0.2,1.2-0.5c0.3-0.3,0.4-0.7,0.4-1.3V469z"/>
<path class="st1" d="M1016.7,472.8c-1.1,0-1.9-0.2-2.4-0.7c-0.5-0.5-0.7-1.2-0.7-2.2v-3.6h-1.7v-1.9h1.7v-2.4h2.2v2.4h2.5l-0.3,1.9
	h-2.3v3.5c0,0.4,0.1,0.7,0.3,0.9c0.2,0.2,0.5,0.3,0.8,0.3h1.4v1.9H1016.7z"/>
<path class="st1" d="M1019.9,463.2V461h2.3v2.2H1019.9z M1019.9,472.7v-8.3h2.2v8.3H1019.9z"/>
<path class="st1" d="M1027.8,472.9c-0.8,0-1.5-0.2-2.1-0.5s-1.1-0.8-1.4-1.4c-0.4-0.6-0.5-1.4-0.5-2.2v-0.5c0-0.9,0.2-1.6,0.5-2.2
	c0.4-0.6,0.8-1.1,1.4-1.4s1.3-0.5,2.1-0.5h0.1c0.8,0,1.5,0.2,2.1,0.5c0.6,0.3,1.1,0.8,1.4,1.4c0.4,0.6,0.5,1.4,0.5,2.2v0.5
	c0,0.9-0.2,1.6-0.5,2.2c-0.4,0.6-0.8,1.1-1.4,1.4c-0.6,0.3-1.3,0.5-2.1,0.5H1027.8z M1027.8,471h0.1c0.5,0,1-0.2,1.3-0.5
	s0.5-0.9,0.5-1.6v-0.6c0-0.7-0.2-1.3-0.5-1.6s-0.8-0.5-1.3-0.5h-0.1c-0.5,0-1,0.2-1.3,0.5s-0.5,0.9-0.5,1.6v0.6
	c0,0.7,0.2,1.3,0.5,1.6S1027.3,471,1027.8,471z"/>
<path class="st1" d="M1033.6,472.7v-8.3h2v1c0.3-0.4,0.6-0.7,1.1-0.9c0.4-0.2,0.9-0.3,1.4-0.3h0.2c0.9,0,1.7,0.3,2.2,0.9
	c0.5,0.6,0.8,1.4,0.8,2.5v5.1h-2.2v-4.8c0-0.6-0.1-1-0.3-1.3c-0.2-0.3-0.6-0.5-1.1-0.5h-0.1c-0.3,0-0.5,0.1-0.8,0.2
	c-0.3,0.1-0.5,0.4-0.6,0.6c-0.2,0.3-0.2,0.7-0.2,1.1v4.6H1033.6z"/>
<path class="st1" d="M1051.2,472.9c-2.3,0-3.8-0.8-4.5-2.5l2-1c0.4,1,1.2,1.5,2.5,1.5h0.2c1.4,0,2-0.4,2-1.3v-0.2
	c0-0.3-0.1-0.6-0.4-0.9c-0.2-0.2-0.6-0.4-1-0.4l-1.7-0.2c-1.1-0.1-1.9-0.5-2.4-1c-0.6-0.5-0.8-1.3-0.8-2.2v-0.2
	c0-0.7,0.2-1.2,0.5-1.7c0.3-0.5,0.8-0.9,1.4-1.1c0.6-0.3,1.4-0.4,2.2-0.4h0.2c1,0,1.9,0.2,2.6,0.6c0.7,0.4,1.2,1,1.5,1.8l-2,0.9
	c-0.3-0.8-1-1.3-2.1-1.3h-0.2c-0.6,0-1,0.1-1.4,0.3s-0.5,0.5-0.5,0.9v0.2c0,0.7,0.4,1,1.3,1.2l1.7,0.2c1.1,0.1,1.9,0.5,2.5,1.1
	c0.5,0.6,0.8,1.3,0.8,2.3v0.2c0,1.1-0.4,1.9-1.1,2.5c-0.7,0.6-1.8,0.9-3.2,0.9H1051.2z"/>
<path class="st1" d="M1060.1,472.9c-0.9,0-1.6-0.3-2.2-0.9c-0.5-0.6-0.8-1.4-0.8-2.5v-5.1h2.2v4.8c0,0.6,0.1,1,0.3,1.3
	c0.2,0.3,0.5,0.5,1,0.5h0.1c0.3,0,0.5-0.1,0.7-0.2s0.4-0.4,0.6-0.6s0.2-0.7,0.2-1.1v-4.6h2.2v8.3h-2v-1c-0.3,0.4-0.6,0.7-1,0.9
	s-0.9,0.3-1.4,0.3H1060.1z"/>
<path class="st1" d="M1066.7,463.2V461h2.3v2.2H1066.7z M1066.7,472.7v-8.3h2.2v8.3H1066.7z"/>
<path class="st1" d="M1075,472.8c-1.1,0-1.9-0.2-2.4-0.7c-0.5-0.5-0.7-1.2-0.7-2.2v-3.6h-1.7v-1.9h1.7v-2.4h2.2v2.4h2.5l-0.3,1.9
	h-2.3v3.5c0,0.4,0.1,0.7,0.3,0.9c0.2,0.2,0.5,0.3,0.8,0.3h1.4v1.9H1075z"/>
<path class="st1" d="M1081.8,472.9c-1.3,0-2.2-0.4-2.9-1.1s-1-1.7-1-3v-0.5c0-1.3,0.4-2.3,1.1-3c0.7-0.7,1.7-1.1,2.9-1.1h0.1
	c1.2,0,2.1,0.4,2.7,1.1s1,1.7,1,2.9v1h-5.6c0.1,1.3,0.7,1.9,1.8,1.9h0.2c0.8,0,1.4-0.3,1.8-0.8l1.6,1.1c-0.3,0.5-0.7,0.9-1.3,1.2
	s-1.3,0.4-2,0.4H1081.8z M1080,467.7h3.4v0c0-1.1-0.5-1.7-1.6-1.7h-0.1C1080.7,466,1080.1,466.6,1080,467.7z"/>
<path class="st1" d="M1086.3,474.7c0.7-1.1,1.1-2.2,1.5-3.3c0.3-1.2,0.5-2.3,0.5-3.4v-0.9c0-1.1-0.2-2.3-0.5-3.4
	c-0.3-1.1-0.8-2.2-1.5-3.3h2.2c0.7,1.1,1.2,2.2,1.6,3.3c0.4,1.1,0.5,2.3,0.5,3.4v0.9c0,2.4-0.7,4.6-2.1,6.8H1086.3z"/>
<rect id="rectangle-10-5-7" x="1203.2" y="267.6" class="st2" width="50" height="159.2"/>
<rect id="rectangle-10-6-8" x="1143" y="194.6" class="st3" width="50" height="232.2"/>
<path class="st1" d="M1151.9,453.7c-1.1,0-2-0.2-2.8-0.7c-0.8-0.4-1.4-1.1-1.8-1.9c-0.4-0.8-0.6-1.8-0.6-2.9v-0.6
	c0-1.1,0.2-2.1,0.6-2.9c0.4-0.8,1-1.5,1.8-1.9s1.7-0.7,2.8-0.7h0.2c1.1,0,2,0.2,2.8,0.7s1.4,1.1,1.8,1.9c0.4,0.8,0.6,1.8,0.6,2.9
	v0.6c0,1.1-0.2,2.1-0.6,2.9c-0.4,0.8-1,1.5-1.8,1.9c-0.8,0.4-1.7,0.7-2.8,0.7H1151.9z M1151.9,451.6h0.1c0.9,0,1.6-0.3,2.1-0.8
	s0.8-1.4,0.8-2.6v-0.7c0-1.1-0.3-2-0.8-2.6c-0.5-0.6-1.2-0.8-2.1-0.8h-0.1c-0.9,0-1.6,0.3-2.1,0.8c-0.5,0.6-0.8,1.4-0.8,2.6v0.7
	c0,1.1,0.3,2,0.8,2.6S1151,451.6,1151.9,451.6z"/>
<path class="st1" d="M1159.1,453.5v-8.3h2v1c0.3-0.4,0.6-0.7,1.1-0.9s0.9-0.3,1.4-0.3h0.2c0.9,0,1.7,0.3,2.2,0.9
	c0.5,0.6,0.8,1.4,0.8,2.5v5.1h-2.2v-4.8c0-0.6-0.1-1-0.3-1.3c-0.2-0.3-0.6-0.5-1.1-0.5h-0.1c-0.3,0-0.5,0.1-0.8,0.2
	c-0.2,0.1-0.5,0.4-0.6,0.6c-0.2,0.3-0.2,0.7-0.2,1.1v4.6H1159.1z"/>
<path class="st1" d="M1171.8,453.5v-9h-1.9l0.3-2h3.9v11H1171.8z"/>
<path class="st1" d="M1182.6,453.5v-11.2h4.2c1.3,0,2.3,0.3,3.1,0.9c0.8,0.6,1.1,1.5,1.1,2.5v0.3c0,0.8-0.2,1.4-0.6,1.9
	c-0.4,0.5-0.9,0.9-1.5,1.2l2.4,4.4h-2.5l-2.2-4h-1.7v4H1182.6z M1185,447.5h1.8c0.6,0,1-0.1,1.4-0.3s0.6-0.6,0.6-1.1v-0.4
	c0-0.5-0.2-0.8-0.6-1s-0.8-0.3-1.4-0.3h-1.8V447.5z"/>
<path class="st1" d="M1196.2,453.7c-1.3,0-2.2-0.4-2.9-1.1c-0.7-0.7-1-1.7-1-3v-0.5c0-1.3,0.4-2.3,1.1-3c0.7-0.7,1.7-1.1,2.9-1.1
	h0.1c1.2,0,2.1,0.4,2.7,1.1s1,1.7,1,2.9v1h-5.6c0.1,1.3,0.7,1.9,1.8,1.9h0.2c0.8,0,1.4-0.3,1.8-0.8l1.6,1.1
	c-0.3,0.5-0.7,0.9-1.3,1.2s-1.3,0.4-2,0.4H1196.2z M1194.4,448.5h3.4v0c0-1.1-0.5-1.7-1.6-1.7h-0.1
	C1195.1,446.8,1194.5,447.4,1194.4,448.5z"/>
<path class="st1" d="M1204.7,453.7c-1.9,0-3.1-0.6-3.6-1.9l1.7-0.9c0.1,0.3,0.4,0.6,0.7,0.7c0.3,0.2,0.7,0.2,1.2,0.2h0.2
	c0.9,0,1.4-0.2,1.4-0.7v-0.1c0-0.4-0.3-0.6-0.8-0.7l-1.7-0.2c-0.8-0.1-1.4-0.4-1.9-0.8s-0.6-1-0.6-1.7v-0.2c0-0.8,0.3-1.4,0.9-1.9
	c0.6-0.5,1.4-0.7,2.4-0.7h0.2c0.8,0,1.5,0.2,2.1,0.5s1,0.8,1.2,1.4l-1.8,0.8c-0.3-0.6-0.8-0.8-1.6-0.8h-0.2c-0.8,0-1.2,0.2-1.2,0.7
	v0.1c0,0.2,0.1,0.3,0.2,0.4c0.1,0.1,0.3,0.2,0.6,0.2l1.7,0.2c0.8,0.1,1.4,0.4,1.8,0.8s0.6,1,0.6,1.7v0.2c0,0.8-0.3,1.5-0.9,1.9
	s-1.5,0.6-2.6,0.6H1204.7z"/>
<path class="st1" d="M1209.9,444v-2.2h2.3v2.2H1209.9z M1209.9,453.5v-8.3h2.2v8.3H1209.9z"/>
<path class="st1" d="M1213.8,453.5v-1.7l3.8-4.7h-3.7v-1.9h6.6v1.7l-3.8,4.7h3.9v1.9H1213.8z"/>
<path class="st1" d="M1225.8,453.7c-1.3,0-2.2-0.4-2.9-1.1c-0.7-0.7-1-1.7-1-3v-0.5c0-1.3,0.4-2.3,1.1-3c0.7-0.7,1.7-1.1,2.9-1.1
	h0.1c1.2,0,2.1,0.4,2.7,1.1c0.7,0.7,1,1.7,1,2.9v1h-5.6c0.1,1.3,0.7,1.9,1.8,1.9h0.2c0.8,0,1.4-0.3,1.8-0.8l1.6,1.1
	c-0.3,0.5-0.7,0.9-1.3,1.2c-0.6,0.3-1.3,0.4-2,0.4H1225.8z M1224.1,448.5h3.4v0c0-1.1-0.5-1.7-1.6-1.7h-0.1
	C1224.8,446.8,1224.2,447.4,1224.1,448.5z"/>
<path class="st1" d="M1234.4,453.5l4.3-11.2h2.1l4.3,11.2h-2.5l-0.8-2.3h-4.2l-0.8,2.3H1234.4z M1238.3,449.3h2.9l-1.4-4
	L1238.3,449.3z"/>
<path class="st1" d="M1246.7,453.5v-11.2h2.3v11.2H1246.7z"/>
<path class="st1" d="M609.4,474.7c-1.4-2.1-2.1-4.4-2.1-6.8v-0.9c0-1.2,0.2-2.3,0.5-3.4c0.4-1.1,0.9-2.2,1.6-3.3h2.2
	c-0.7,1.1-1.1,2.2-1.5,3.3c-0.3,1.1-0.5,2.3-0.5,3.4v0.9c0,1.1,0.2,2.3,0.5,3.4c0.3,1.2,0.8,2.3,1.5,3.3H609.4z"/>
<path class="st1" d="M712.6,474.7c0.7-1.1,1.1-2.2,1.5-3.3c0.3-1.2,0.5-2.3,0.5-3.4v-0.9c0-1.1-0.2-2.3-0.5-3.4
	c-0.3-1.1-0.8-2.2-1.5-3.3h2.2c0.7,1.1,1.2,2.2,1.6,3.3c0.4,1.1,0.5,2.3,0.5,3.4v0.9c0,2.4-0.7,4.6-2.1,6.8H712.6z"/>
</svg>
