<?xml version="1.0" encoding="utf-8"?>
<!-- Generator: Adobe Illustrator 27.1.1, SVG Export Plug-In . SVG Version: 6.00 Build 0)  -->
<svg version="1.1" id="Art_3.0" xmlns="http://www.w3.org/2000/svg" xmlns:xlink="http://www.w3.org/1999/xlink" x="0px" y="0px"
	 viewBox="0 0 48 48" style="enable-background:new 0 0 48 48;" xml:space="preserve">
<style type="text/css">
	.st0{fill:#FFFFFF;}
	.st1{fill:#FFFFFF;fill-opacity:0;}
</style>
<g>
	<path class="st0" d="M37,27.49989c-3.58398,0-6.5,2.91602-6.5,6.5s2.91602,6.5,6.5,6.5s6.5-2.91602,6.5-6.5
		S40.58398,27.49989,37,27.49989z M37,39.49989c-3.03271,0-5.5-2.46729-5.5-5.5s2.46729-5.5,5.5-5.5s5.5,2.46729,5.5,5.5
		S40.03271,39.49989,37,39.49989z"/>
	<polygon class="st0" points="36.00439,35.29285 34.00439,33.29285 33.29736,33.99989 36.00439,36.70692 40.71143,31.99989 
		40.00439,31.29285 	"/>
	<path class="st0" d="M25.92871,22.85584c0.86621,0,1.57129-0.70508,1.57129-1.57129c0-0.8667-0.70508-1.57178-1.57129-1.57178
		c-0.43262,0-0.82483,0.17578-1.10931,0.45996l-3.76996-1.88574c0.00989-0.0708,0.02185-0.1416,0.02185-0.21582
		c0-0.86621-0.70508-1.57129-1.57129-1.57129s-1.57129,0.70508-1.57129,1.57129c0,0.07422,0.0119,0.14502,0.02185,0.21631
		l-3.80554,1.90283c-0.28143-0.26465-0.65771-0.43018-1.07373-0.43018c-0.86621,0-1.57129,0.70508-1.57129,1.57129
		c0,0.8667,0.70508,1.57178,1.57129,1.57178c0.15088,0,0.29388-0.02832,0.43207-0.06836l1.10999,1.66504h-0.00006h0.00006
		L13.47797,26.203c-0.13055-0.03516-0.26514-0.06006-0.40668-0.06006c-0.86621,0-1.57129,0.70459-1.57129,1.57129
		s0.70508,1.57129,1.57129,1.57129c0.43195,0,0.82349-0.17529,1.10785-0.45801l3.77142,1.88525
		c-0.00995,0.07129-0.02185,0.1416-0.02185,0.21582c0,0.86621,0.70508,1.57129,1.57129,1.57129s1.57129-0.70508,1.57129-1.57129
		c0-0.07373-0.0119-0.14453-0.02185-0.21582l3.77142-1.88525c0.28436,0.28271,0.6759,0.45801,1.10785,0.45801
		c0.86621,0,1.57129-0.70459,1.57129-1.57129s-0.70508-1.57129-1.57129-1.57129c-0.14154,0-0.27612,0.0249-0.40668,0.06006
		l-1.13538-1.70312h0.00006h-0.00006l1.13599-1.7041C25.65295,22.83094,25.78741,22.85584,25.92871,22.85584z M24.37878,27.93006
		l-3.41809,1.70898l1.41321-2.11963l0.51184-0.76758l1.49304,0.74658c-0.00995,0.07129-0.02185,0.14209-0.02185,0.21582
		S24.36883,27.85876,24.37878,27.93006z M14.62121,27.49842l1.49304-0.74658l1.9248,2.88672l-3.41785-1.7085
		c0.00995-0.07129,0.02185-0.14209,0.02185-0.21582S14.63115,27.56971,14.62121,27.49842z M21.04949,24.71571
		c0.00989-0.07129,0.02179-0.1416,0.02179-0.21582c0-0.07373-0.0119-0.14453-0.02179-0.21582l1.49347-0.74658l0.6416,0.9624
		l-0.64148,0.9624L21.04949,24.71571z M20.60766,23.3871c-0.16858-0.16797-0.37756-0.2915-0.60767-0.36914v-3.29541l1.98407,2.97656
		L20.60766,23.3871z M19.49999,25.07118c-0.31494,0-0.57129-0.25586-0.57129-0.57129c0-0.31494,0.25635-0.57129,0.57129-0.57129
		s0.57129,0.25635,0.57129,0.57129C20.07128,24.81532,19.81493,25.07118,19.49999,25.07118z M16.45696,25.46229l-0.64154-0.9624
		l0.64148-0.9624l1.49365,0.74658c-0.00995,0.07129-0.02185,0.14209-0.02185,0.21582c0,0.07422,0.0119,0.14453,0.02185,0.21582
		C17.95055,24.71571,16.45696,25.46229,16.45696,25.46229z M18.39251,23.38661l-1.3764-0.6875L19,19.72304v3.29492
		c-0.22998,0.07764-0.43896,0.20117-0.60748,0.36865H18.39251z M18.39257,25.61317c0.16852,0.16748,0.37744,0.29102,0.60742,0.36914
		v3.29443l-1.98389-2.97559l1.37646-0.68799L18.39257,25.61317z M19.99999,25.98231c0.23004-0.07812,0.43903-0.20166,0.6076-0.36914
		l1.37628,0.68799l-1.98389,2.97559v-3.29443L19.99999,25.98231z M22.88573,22.24793h-0.00006l-1.92511-2.88721l3.41803,1.70947
		c-0.00977,0.0708-0.02167,0.14062-0.02167,0.21436c0,0.07422,0.0119,0.14551,0.02197,0.21729
		C24.37889,21.50184,22.88573,22.24793,22.88573,22.24793z M16.11425,22.24842l-1.48865-0.74463
		c0.00635-0.05713,0.01746-0.11328,0.01746-0.17236c0-0.08838-0.01196-0.17432-0.02618-0.25879l3.42224-1.71143L16.11425,22.24842z
		 M25.9287,20.71278c0.31494,0,0.57129,0.25684,0.57129,0.57178s-0.25635,0.57129-0.57129,0.57129
		c-0.31543,0-0.57178-0.25635-0.57178-0.57129S25.61327,20.71278,25.9287,20.71278z M19.49999,17.49989
		c0.31494,0,0.57129,0.25635,0.57129,0.57129c0,0.31543-0.25635,0.57178-0.57129,0.57178s-0.57129-0.25635-0.57129-0.57178
		C18.9287,17.75624,19.18505,17.49989,19.49999,17.49989z M12.49999,21.33143c0-0.31494,0.25635-0.57129,0.57129-0.57129
		c0.31543,0,0.57178,0.25635,0.57178,0.57129s-0.25635,0.57178-0.57178,0.57178
		C12.75634,21.90321,12.49999,21.64637,12.49999,21.33143z M14.53234,22.57557l1.02295,0.51123h-0.00012h0.00012l-0.34106,0.51172
		l-0.68188-1.02295L14.53234,22.57557z M15.21422,25.40125l0.341,0.51172h-0.00006h0.00006l-0.56348,0.28174l-0.46002,0.22998
		C14.53172,26.42469,15.21422,25.40125,15.21422,25.40125z M13.07128,28.28553c-0.31494,0-0.57129-0.25635-0.57129-0.57129
		s0.25635-0.57129,0.57129-0.57129c0.31543,0,0.57178,0.25635,0.57178,0.57129S13.38671,28.28553,13.07128,28.28553z
		 M19.49999,31.49989c-0.31494,0-0.57129-0.25635-0.57129-0.57129c0-0.06543,0.01703-0.12646,0.03754-0.18555l0.03278-0.06543
		c0.03851-0.07715,0.10443-0.14746,0.19543-0.2085c0.05341-0.03564,0.10217-0.06104,0.14923-0.08008
		c0.05072-0.01514,0.10089-0.03174,0.15631-0.03174s0.10559,0.0166,0.15631,0.03174
		c0.04706,0.01904,0.09583,0.04443,0.14923,0.08008c0.09247,0.06201,0.15692,0.13037,0.19641,0.20996l0.03143,0.06201
		c0.02094,0.05957,0.0379,0.12109,0.0379,0.1875C20.07127,31.24353,19.81492,31.49988,19.49999,31.49989z M26.49999,27.71425
		c0,0.31494-0.25635,0.57129-0.57129,0.57129c-0.31543,0-0.57178-0.25635-0.57178-0.57129s0.25635-0.57129,0.57178-0.57129
		C26.24364,27.14296,26.49999,27.39931,26.49999,27.71425z M24.46825,26.4247l-0.46002-0.22998l-0.56348-0.28174h0.00006h-0.00006
		l0.341-0.51172C23.78575,25.40125,24.46825,26.42469,24.46825,26.4247z M23.44463,23.08681l1.02301-0.51123l-0.68188,1.02295
		C23.78576,23.59852,23.44463,23.0868,23.44463,23.08681z"/>
	<polygon class="st0" points="5.5,14.49989 33.5,14.49989 33.5,26.46961 34.5,26.46961 34.5,13.49989 4.5,13.49989 4.5,35.49989 
		28.5,35.49989 28.5,34.49989 5.5,34.49989 	"/>
	<polygon class="st0" points="36.5,24.46961 37.5,24.46961 37.5,10.61512 7.5,10.61512 7.5,11.61512 36.5,11.61512 	"/>
	<polygon class="st0" points="39.5,22.46961 40.5,22.46961 40.5,7.49989 10.5,7.49989 10.5,8.49989 39.5,8.49989 	"/>
</g>
<rect class="st1" width="48" height="48"/>
</svg>
