<?xml version="1.0" encoding="utf-8"?>
<!-- Generator: Adobe Illustrator 27.1.1, SVG Export Plug-In . SVG Version: 6.00 Build 0)  -->
<svg version="1.1" id="Art_3.0" xmlns="http://www.w3.org/2000/svg" xmlns:xlink="http://www.w3.org/1999/xlink" x="0px" y="0px"
	 viewBox="0 0 48 48" style="enable-background:new 0 0 48 48;" xml:space="preserve">
<style type="text/css">
	.st0{fill:#FFFFFF;}
	.st1{fill:#FFFFFF;fill-opacity:0;}
</style>
<path class="st0" d="M24,21.5c-5.78955,0-10.5,4.71045-10.5,10.5S18.21045,42.5,24,42.5S34.5,37.78955,34.5,32
	S29.78955,21.5,24,21.5z M24,22.5c2.25159,0,4.31976,0.79102,5.94965,2.10498c0.23798,0.47607,0.45282,0.96484,0.61121,1.48096
	l1.55658,1.00439c0.23755,0.39111,0.45673,0.79492,0.63666,1.22021l-1.97272-1.27246
	c0.08563,0.42432,0.14032,0.85742,0.16992,1.2998l2.28412,1.47363c0.07141,0.30127,0.12781,0.60791,0.16968,0.91943
	l-2.41388-1.55762c-0.00665,0.38428-0.03766,0.76221-0.08643,1.13428l2.5943,1.67383c0,0.00635,0.00092,0.01221,0.00092,0.01855
	c0,0.25879-0.01843,0.51318-0.03888,0.76709l-2.67151-1.72363c-0.07184,0.3457-0.16394,0.68408-0.27045,1.01562l2.7951,1.80322
	c-0.04724,0.23633-0.10999,0.46729-0.1745,0.69727l-2.86041-1.84521c-0.12585,0.31396-0.26581,0.62061-0.42163,0.91797
	l2.95221,1.90479c-0.08606,0.21338-0.18323,0.4209-0.28406,0.62646l-3.00952-1.94141
	c-0.17517,0.28467-0.36334,0.56006-0.56531,0.8252l3.08765,1.9917c-0.12122,0.19287-0.24915,0.37988-0.38342,0.56299
	l-3.13647-2.02344c-0.2243,0.25586-0.46161,0.49951-0.71063,0.73145l3.20947,2.0708
	c-0.15594,0.17139-0.31592,0.33789-0.48383,0.49756l-3.25537-2.1001c-0.27844,0.2251-0.57111,0.43213-0.87305,0.62646
	l3.33142,2.14941c-0.19446,0.14795-0.39246,0.29102-0.59821,0.42383l-3.38068-2.18066
	c-0.34625,0.1875-0.70837,0.34814-1.07776,0.49463l3.47168,2.23926c-0.2442,0.11963-0.4931,0.22949-0.74841,0.32764
	l-3.53577-2.28125c-0.44696,0.13379-0.90918,0.22949-1.38,0.2998l3.66821,2.36621c-0.32202,0.0752-0.64941,0.13477-0.98291,0.17627
	l-3.78137-2.43945c-0.13098,0.00488-0.2594,0.01953-0.3916,0.01953c-0.56549,0-1.11542-0.05908-1.65479-0.1499l4.06097,2.61963
	c-0.55988-0.03467-1.10583-0.1167-1.6355-0.24463l-4.76703-3.07568c-0.13184-0.05811-0.25909-0.12402-0.38849-0.18604
	c-1.32031-1.63184-2.11517-3.70557-2.11517-5.96338c0-5.23828,4.26172-9.5,9.5-9.5L24,22.5z M42.70703,9L38,4.29297L34.29297,8
	l0.86292,0.86279l-2.00012,1.00049l3.98145,3.98096l0.99982-2l0.86298,0.86279L42.70705,9H42.70703z M38,5.70703L41.29297,9
	L39,11.29297L35.70703,8L38,5.70703z M36.86279,12.15576l-2.01855-2.01904l1.05713-0.52832l1.49017,1.49023
	C37.39154,11.09863,36.86279,12.15576,36.86279,12.15576z M31.5,12.5h3v3h-1v-1.29297l-6.46924,6.46924L14.2959,10.06397
	l0.64014-0.76807l12.0332,10.02783L32.79285,13.5H31.5C31.5,13.5,31.5,12.5,31.5,12.5z M31.5,17.5h3v3h-1v-1.29297l-2.5,2.5
	L30.29297,21l2.49988-2.5H31.5V17.5z M9,4.5C7.07031,4.5,5.5,6.07031,5.5,8c0,1.39111,0.82184,2.58496,2,3.14893V13.5h1V14h1v-0.5h1
	v-2.35107c1.17816-0.56396,2-1.75781,2-3.14893C12.5,6.07031,10.92969,4.5,9,4.5z M9.5,11.5v1h-1v-1H9.5z M9.89539,10.32715
	l0.77551-1.55078L9.77637,8.3291L9,9.88183L8.22363,8.3291L7.3291,8.77637l0.77551,1.55078C7.16851,9.96533,6.5,9.06201,6.5,8
	c0-1.37842,1.12158-2.5,2.5-2.5s2.5,1.12158,2.5,2.5C11.5,9.06201,10.83148,9.96533,9.89539,10.32715z"/>
<rect class="st1" width="48" height="48"/>
</svg>
